<svg xmlns="http://www.w3.org/2000/svg" xmlns:xlink="http://www.w3.org/1999/xlink" width="500" zoomAndPan="magnify" viewBox="0 0 375 225" height="300" preserveAspectRatio="xMidYMid meet" version="1.0"><defs><g/><clipPath id="59f805890d"><path d="M 0 8.480469 L 374.996094 8.480469 L 374.996094 216.230469 L 0 216.230469 Z M 0 8.480469 " clip-rule="nonzero"/></clipPath></defs><path stroke-linecap="round" transform="matrix(0.000000000000000046, -0.751629, 0.75, 0.000000000000000046, 182.693299, 163.941786)" fill="none" stroke-linejoin="miter" d="M 2.999201 2.997477 L 133.710144 2.997477 " stroke="#a77cfb" stroke-width="6" stroke-opacity="1" stroke-miterlimit="4"/><g fill="#a77cfb" fill-opacity="1"><g transform="translate(59.423623, 160.040504)"><g><path d="M 65.5625 -25.617188 C 75.882812 -27.316406 87.054688 -36.546875 87.054688 -55.121094 C 87.054688 -76.003906 72.96875 -84.988281 61.800781 -84.988281 L 6.070312 -84.988281 L 6.070312 -83.53125 L 14.8125 -83.53125 L 14.8125 -1.457031 L 6.070312 -1.457031 L 6.070312 0 L 50.265625 0 L 50.265625 -1.457031 L 41.523438 -1.457031 L 41.523438 -25.253906 L 61.800781 -25.253906 C 62.527344 -25.253906 63.257812 -25.253906 63.984375 -25.375 L 77.339844 -1.457031 L 69.8125 -1.457031 L 69.8125 0 L 86.324219 0 L 86.324219 -1.457031 L 78.917969 -1.457031 Z M 41.523438 -26.710938 L 41.523438 -83.53125 L 61.800781 -83.53125 C 72.242188 -83.53125 85.597656 -75.519531 85.597656 -55.121094 C 85.597656 -34.722656 72.242188 -26.710938 61.800781 -26.710938 Z M 41.523438 -26.710938 "/></g></g></g><g clip-path="url(#59f805890d)"><path fill="#a77cfb" d="M -0.00390625 212.707031 L -0.00390625 8.476562 L 374.992188 8.476562 L 374.992188 216.226562 L -0.00390625 216.226562 Z M 7.03125 15.523438 L 7.03125 209.183594 L 367.957031 209.183594 L 367.957031 15.523438 Z M 7.03125 15.523438 " fill-opacity="1" fill-rule="nonzero"/></g><g fill="#a77cfb" fill-opacity="1"><g transform="translate(220.42812, 160.040504)"><g><path d="M 65.199219 -43.832031 C 71.390625 -46.742188 76.125 -52.328125 76.125 -62.40625 C 76.125 -79.648438 64.46875 -84.988281 50.871094 -84.988281 L 6.070312 -84.988281 L 6.070312 -83.53125 L 14.8125 -83.53125 L 14.8125 -1.457031 L 6.070312 -1.457031 L 6.070312 0 L 55.730469 0 C 66.898438 0 80.984375 -5.34375 80.984375 -22.582031 C 80.984375 -35.9375 73.578125 -41.644531 65.199219 -43.832031 Z M 41.523438 -83.53125 L 50.871094 -83.53125 C 63.742188 -83.53125 74.667969 -79.160156 74.667969 -62.40625 C 74.667969 -52.085938 69.570312 -46.742188 63.257812 -44.316406 C 60.707031 -44.679688 58.15625 -44.921875 55.730469 -44.921875 L 41.523438 -44.921875 Z M 55.730469 -1.457031 L 41.523438 -1.457031 L 41.523438 -43.464844 L 55.730469 -43.464844 C 57.914062 -43.464844 60.34375 -43.34375 62.648438 -42.980469 L 62.890625 -42.859375 L 63.011719 -42.859375 C 71.511719 -41.402344 79.527344 -36.546875 79.527344 -22.582031 C 79.527344 -5.828125 66.171875 -1.457031 55.730469 -1.457031 Z M 55.730469 -1.457031 "/></g></g></g></svg>