<svg xmlns="http://www.w3.org/2000/svg" xmlns:xlink="http://www.w3.org/1999/xlink" width="128" zoomAndPan="magnify" viewBox="0 0 96 95.999999" height="128" preserveAspectRatio="xMidYMid meet" version="1.0"><path fill="#ebe0ff" d="M 0 47.898438 C 0 21.445312 21.445312 0 47.898438 0 C 74.355469 0 95.800781 21.445312 95.800781 47.898438 L 95.800781 95.800781 L 47.898438 95.800781 C 21.445312 95.800781 0 74.355469 0 47.898438 Z M 0 47.898438 " fill-opacity="1" fill-rule="nonzero"/><path fill="#864afc" d="M 50.417969 54.207031 C 49.304688 54.207031 48.332031 53.96875 47.496094 53.496094 C 46.6875 53.050781 46.285156 52.257812 46.285156 51.117188 C 46.285156 50.390625 46.464844 49.582031 46.828125 48.691406 C 47.328125 49.25 47.789062 49.640625 48.207031 49.863281 C 48.652344 50.085938 49.125 50.195312 49.625 50.195312 C 51.019531 50.195312 52.046875 49.417969 52.714844 47.855469 C 53.414062 46.296875 53.761719 44.570312 53.761719 42.675781 C 53.761719 39.140625 52.4375 37.371094 49.792969 37.371094 C 49.039062 37.371094 48.398438 37.414062 47.871094 37.496094 L 44.445312 53.496094 L 38.429688 53.496094 L 44.113281 26.929688 L 50.292969 26.09375 L 48.332031 35.367188 L 48.582031 35.367188 C 49.640625 35.367188 50.628906 35.035156 51.546875 34.363281 C 52.464844 33.667969 53.203125 32.804688 53.761719 31.773438 C 54.316406 30.71875 54.597656 29.660156 54.597656 28.601562 C 54.597656 27.320312 54.136719 26.246094 53.21875 25.382812 C 52.328125 24.519531 50.949219 24.089844 49.082031 24.089844 C 47.382812 24.089844 45.726562 24.480469 44.113281 25.257812 C 42.496094 26.011719 41.175781 27.152344 40.144531 28.683594 C 39.140625 30.214844 38.640625 32.066406 38.640625 34.238281 C 38.640625 35.269531 38.738281 35.992188 38.933594 36.410156 C 39.128906 36.800781 39.222656 37.023438 39.222656 37.082031 C 37.75 37.082031 36.636719 36.789062 35.882812 36.203125 C 35.132812 35.589844 34.753906 34.601562 34.753906 33.238281 C 34.753906 31.34375 35.464844 29.546875 36.886719 27.847656 C 38.304688 26.148438 40.183594 24.785156 42.523438 23.753906 C 44.863281 22.695312 47.328125 22.167969 49.917969 22.167969 C 51.867188 22.167969 53.511719 22.472656 54.847656 23.085938 C 56.183594 23.699219 57.171875 24.507812 57.8125 25.507812 C 58.480469 26.511719 58.816406 27.613281 58.816406 28.808594 C 58.816406 30.089844 58.453125 31.328125 57.730469 32.527344 C 57.003906 33.722656 55.976562 34.699219 54.636719 35.449219 C 56.308594 35.757812 57.546875 36.539062 58.355469 37.789062 C 59.164062 39.015625 59.566406 40.476562 59.566406 42.175781 C 59.566406 43.761719 59.261719 45.488281 58.648438 47.355469 C 58.0625 49.222656 57.074219 50.835938 55.683594 52.203125 C 54.316406 53.539062 52.5625 54.207031 50.417969 54.207031 Z M 50.417969 54.207031 " fill-opacity="1" fill-rule="nonzero"/><path fill="#864afc" d="M 35.113281 73.554688 C 34.683594 73.554688 34.308594 73.464844 33.984375 73.28125 C 33.671875 73.109375 33.515625 72.804688 33.515625 72.363281 C 33.515625 72.085938 33.585938 71.773438 33.726562 71.429688 C 33.917969 71.644531 34.097656 71.792969 34.257812 71.878906 C 34.429688 71.964844 34.613281 72.007812 34.804688 72.007812 C 35.34375 72.007812 35.742188 71.707031 36 71.105469 C 36.269531 70.503906 36.402344 69.835938 36.402344 69.105469 C 36.402344 67.742188 35.890625 67.058594 34.871094 67.058594 C 34.582031 67.058594 34.332031 67.074219 34.128906 67.109375 L 32.808594 73.28125 L 30.484375 73.28125 L 32.679688 63.027344 L 35.066406 62.707031 L 34.308594 66.285156 L 34.402344 66.285156 C 34.8125 66.285156 35.195312 66.15625 35.546875 65.898438 C 35.902344 65.628906 36.1875 65.296875 36.402344 64.898438 C 36.617188 64.492188 36.726562 64.082031 36.726562 63.671875 C 36.726562 63.179688 36.546875 62.765625 36.191406 62.433594 C 35.847656 62.097656 35.316406 61.933594 34.597656 61.933594 C 33.941406 61.933594 33.300781 62.082031 32.679688 62.382812 C 32.054688 62.675781 31.542969 63.113281 31.148438 63.707031 C 30.761719 64.296875 30.566406 65.011719 30.566406 65.851562 C 30.566406 66.246094 30.605469 66.527344 30.679688 66.6875 C 30.753906 66.839844 30.792969 66.925781 30.792969 66.945312 C 30.222656 66.945312 29.792969 66.832031 29.503906 66.609375 C 29.210938 66.371094 29.066406 65.988281 29.066406 65.464844 C 29.066406 64.730469 29.339844 64.039062 29.890625 63.382812 C 30.4375 62.726562 31.164062 62.203125 32.066406 61.804688 C 32.96875 61.394531 33.917969 61.191406 34.917969 61.191406 C 35.671875 61.191406 36.304688 61.308594 36.820312 61.546875 C 37.335938 61.78125 37.71875 62.09375 37.964844 62.480469 C 38.222656 62.867188 38.351562 63.292969 38.351562 63.753906 C 38.351562 64.25 38.214844 64.726562 37.933594 65.1875 C 37.65625 65.652344 37.257812 66.027344 36.742188 66.316406 C 37.386719 66.4375 37.863281 66.738281 38.175781 67.21875 C 38.488281 67.695312 38.644531 68.257812 38.644531 68.914062 C 38.644531 69.527344 38.523438 70.191406 38.289062 70.914062 C 38.0625 71.632812 37.679688 72.257812 37.144531 72.78125 C 36.617188 73.296875 35.941406 73.554688 35.113281 73.554688 Z M 40.578125 73.378906 C 40.0625 73.378906 39.644531 73.21875 39.320312 72.894531 C 39.007812 72.574219 38.851562 72.089844 38.851562 71.445312 C 38.851562 71.175781 38.894531 70.828125 38.980469 70.398438 L 40.707031 62.320312 L 43.09375 61.996094 L 41.238281 70.703125 C 41.195312 70.863281 41.175781 71.035156 41.175781 71.21875 C 41.175781 71.433594 41.222656 71.589844 41.320312 71.6875 C 41.425781 71.773438 41.597656 71.816406 41.835938 71.816406 C 42.148438 71.816406 42.4375 71.6875 42.707031 71.429688 C 42.976562 71.160156 43.167969 70.816406 43.285156 70.398438 L 43.964844 70.398438 C 43.566406 71.558594 43.054688 72.347656 42.433594 72.765625 C 41.808594 73.175781 41.191406 73.378906 40.578125 73.378906 Z M 45.414062 73.347656 C 44.617188 73.347656 43.988281 73.144531 43.527344 72.734375 C 43.066406 72.324219 42.835938 71.679688 42.835938 70.800781 C 42.835938 70.070312 42.984375 69.257812 43.285156 68.363281 C 43.585938 67.472656 44.070312 66.703125 44.738281 66.058594 C 45.402344 65.402344 46.242188 65.078125 47.253906 65.078125 C 48.628906 65.078125 49.316406 65.9375 49.316406 67.65625 L 49.316406 67.671875 C 49.347656 67.683594 49.40625 67.6875 49.492188 67.6875 C 49.847656 67.6875 50.257812 67.597656 50.71875 67.414062 C 51.179688 67.21875 51.601562 66.988281 51.976562 66.722656 L 52.121094 67.15625 C 51.808594 67.488281 51.402344 67.773438 50.894531 68.011719 C 50.402344 68.234375 49.859375 68.398438 49.265625 68.496094 C 49.179688 69.472656 48.960938 70.328125 48.605469 71.058594 C 48.25 71.789062 47.792969 72.351562 47.234375 72.75 C 46.675781 73.148438 46.070312 73.347656 45.414062 73.347656 Z M 46.058594 71.894531 C 46.316406 71.894531 46.574219 71.75 46.832031 71.460938 C 47.089844 71.160156 47.316406 70.757812 47.511719 70.25 C 47.703125 69.734375 47.84375 69.164062 47.929688 68.542969 C 47.640625 68.476562 47.492188 68.253906 47.492188 67.867188 C 47.492188 67.425781 47.660156 67.132812 47.992188 66.996094 C 47.972656 66.640625 47.917969 66.398438 47.832031 66.269531 C 47.746094 66.128906 47.597656 66.058594 47.382812 66.058594 C 47.027344 66.058594 46.683594 66.316406 46.347656 66.832031 C 46.015625 67.347656 45.746094 67.96875 45.542969 68.6875 C 45.339844 69.40625 45.238281 70.042969 45.238281 70.589844 C 45.238281 71.105469 45.296875 71.457031 45.414062 71.636719 C 45.53125 71.808594 45.746094 71.894531 46.058594 71.894531 Z M 52.777344 77.3125 C 52.261719 77.3125 51.832031 77.179688 51.488281 76.910156 C 51.144531 76.640625 50.972656 76.253906 50.972656 75.75 C 50.972656 75.136719 51.21875 74.640625 51.714844 74.265625 C 52.210938 73.898438 52.839844 73.59375 53.601562 73.347656 L 53.792969 72.492188 C 53.246094 73.082031 52.601562 73.378906 51.859375 73.378906 C 51.246094 73.378906 50.738281 73.167969 50.328125 72.75 C 49.921875 72.332031 49.714844 71.675781 49.714844 70.785156 C 49.714844 69.988281 49.871094 69.15625 50.183594 68.285156 C 50.503906 67.402344 50.980469 66.660156 51.601562 66.058594 C 52.234375 65.445312 52.988281 65.140625 53.859375 65.140625 C 54.300781 65.140625 54.628906 65.214844 54.84375 65.367188 C 55.058594 65.515625 55.164062 65.714844 55.164062 65.964844 L 55.164062 66.058594 L 55.34375 65.222656 L 57.664062 65.222656 L 56.066406 72.703125 C 56.582031 72.53125 56.996094 72.273438 57.308594 71.929688 C 57.621094 71.585938 57.882812 71.074219 58.097656 70.398438 L 58.777344 70.398438 C 58.484375 71.351562 58.09375 72.058594 57.597656 72.507812 C 57.105469 72.949219 56.546875 73.25 55.921875 73.410156 L 55.679688 74.570312 C 55.464844 75.613281 55.09375 76.328125 54.570312 76.714844 C 54.042969 77.113281 53.445312 77.3125 52.777344 77.3125 Z M 52.90625 71.816406 C 53.15625 71.816406 53.40625 71.703125 53.664062 71.476562 C 53.921875 71.25 54.101562 70.945312 54.199219 70.558594 L 55.019531 66.738281 C 55.019531 66.609375 54.964844 66.480469 54.859375 66.351562 C 54.75 66.210938 54.585938 66.140625 54.359375 66.140625 C 53.929688 66.140625 53.542969 66.394531 53.199219 66.898438 C 52.855469 67.390625 52.585938 67.996094 52.390625 68.703125 C 52.199219 69.402344 52.101562 70.019531 52.101562 70.558594 C 52.101562 71.09375 52.175781 71.4375 52.328125 71.589844 C 52.488281 71.738281 52.683594 71.816406 52.90625 71.816406 Z M 52.40625 76.054688 C 52.589844 76.054688 52.769531 75.929688 52.941406 75.683594 C 53.113281 75.4375 53.246094 75.082031 53.34375 74.621094 L 53.441406 74.152344 C 52.386719 74.539062 51.859375 74.996094 51.859375 75.523438 C 51.859375 75.664062 51.910156 75.785156 52.003906 75.894531 C 52.101562 76 52.234375 76.054688 52.40625 76.054688 Z M 60.570312 64.351562 C 60.214844 64.351562 59.914062 64.226562 59.667969 63.980469 C 59.417969 63.734375 59.296875 63.433594 59.296875 63.078125 C 59.296875 62.722656 59.417969 62.421875 59.667969 62.175781 C 59.914062 61.917969 60.214844 61.789062 60.570312 61.789062 C 60.925781 61.789062 61.226562 61.917969 61.472656 62.175781 C 61.730469 62.421875 61.859375 62.722656 61.859375 63.078125 C 61.859375 63.433594 61.730469 63.734375 61.472656 63.980469 C 61.226562 64.226562 60.925781 64.351562 60.570312 64.351562 Z M 59.472656 73.378906 C 58.957031 73.378906 58.539062 73.21875 58.214844 72.894531 C 57.902344 72.574219 57.746094 72.089844 57.746094 71.445312 C 57.746094 71.175781 57.789062 70.828125 57.875 70.398438 L 58.972656 65.222656 L 61.292969 65.222656 L 60.132812 70.703125 C 60.089844 70.863281 60.070312 71.035156 60.070312 71.21875 C 60.070312 71.433594 60.117188 71.589844 60.214844 71.6875 C 60.320312 71.773438 60.492188 71.816406 60.730469 71.816406 C 61.042969 71.816406 61.332031 71.6875 61.601562 71.429688 C 61.871094 71.160156 62.0625 70.816406 62.179688 70.398438 L 62.859375 70.398438 C 62.460938 71.558594 61.949219 72.347656 61.328125 72.765625 C 60.703125 73.175781 60.085938 73.378906 59.472656 73.378906 Z M 64.226562 73.378906 C 63.445312 73.378906 62.832031 73.175781 62.390625 72.765625 C 61.949219 72.347656 61.730469 71.695312 61.730469 70.816406 C 61.730469 70.074219 61.875 69.257812 62.164062 68.363281 C 62.453125 67.472656 62.929688 66.703125 63.582031 66.058594 C 64.238281 65.402344 65.070312 65.078125 66.082031 65.078125 C 67.265625 65.078125 67.855469 65.59375 67.855469 66.625 C 67.855469 67.226562 67.683594 67.78125 67.339844 68.285156 C 66.996094 68.789062 66.539062 69.199219 65.96875 69.511719 C 65.398438 69.8125 64.792969 69.984375 64.148438 70.027344 C 64.125 70.261719 64.117188 70.421875 64.117188 70.507812 C 64.117188 71.402344 64.449219 71.847656 65.113281 71.847656 C 65.414062 71.847656 65.738281 71.765625 66.082031 71.605469 C 66.425781 71.445312 66.738281 71.242188 67.015625 70.992188 C 66.726562 72.582031 65.796875 73.378906 64.226562 73.378906 Z M 64.261719 69.25 C 64.667969 69.242188 65.050781 69.105469 65.40625 68.847656 C 65.769531 68.589844 66.0625 68.261719 66.277344 67.867188 C 66.5 67.457031 66.613281 67.03125 66.613281 66.589844 C 66.613281 66.152344 66.480469 65.929688 66.210938 65.929688 C 65.835938 65.929688 65.460938 66.273438 65.082031 66.960938 C 64.71875 67.640625 64.441406 68.402344 64.261719 69.25 Z M 64.261719 69.25 " fill-opacity="1" fill-rule="nonzero"/></svg>