<svg width="600" height="600" viewBox="0 0 600 600" fill="none" xmlns="http://www.w3.org/2000/svg">
<path d="M360.1 190.689C317.817 189.533 250.267 222.739 214.689 267.089C160.156 335.061 107.728 301.744 56.9944 347.778C18.6222 382.606 6.58888 457.811 63.6611 496.817C120.733 535.822 219.333 493.967 277.611 517.6C335.889 541.233 388.078 560.628 447.356 551.7C515.417 541.472 575.489 480 564.389 370.144C550.195 229.606 450.35 193.15 360.1 190.689Z" fill="#F6F6F6"/>
<path d="M522.533 394.817C522.533 394.817 558.028 410.483 560.111 440.928C561.961 467.972 547.728 495.733 522.533 508.706C493.75 523.494 481.25 498.889 490.361 483.333C499.472 467.778 550.15 443.889 515.7 413.3C515.7 400.228 522.533 394.817 522.533 394.817Z" fill="#864AFC"/>
<path opacity="0.58" d="M161.567 391.172C148.983 389.85 125.8 390.4 113.289 393.65C101.889 396.611 91.0667 409.761 108.289 415.872C125.511 421.983 111.183 429.478 88.2889 430.572C65.3944 431.667 55.1278 446.761 71.2389 455.133C87.35 463.506 120.194 464.022 147.411 464.022C174.628 464.022 209.822 459.794 224.683 450.883C239.544 441.972 228.122 433.517 222.961 431.172C217.8 428.828 212.794 428.278 214.2 424.606C215.606 420.933 221.978 410.233 212.583 401.972C196.667 388.006 175.05 392.594 161.567 391.172Z" fill="#F6F6F6"/>
<path d="M284.389 375C284.389 375 283.311 398.556 281.367 401.361C279.422 404.167 261.922 409.033 260.956 414.544C259.989 420.056 260.094 429.672 268.95 431.4C277.806 433.128 296.728 432.7 301.578 432.511C306.428 432.322 316.483 418.678 320.911 387.561C294.55 375.522 284.389 375 284.389 375Z" fill="#864AFC"/>
<path d="M330.361 80.2278C330.361 80.2278 317.122 55.0278 307.872 49.1945C298.622 43.3611 292.494 46.2056 290.222 52.3278C287.95 58.45 287.372 83.0722 287.372 83.0722C287.372 83.0722 261.75 106.844 252.072 133.178C242.394 159.511 240.256 212.894 301.322 220C362.389 227.106 425.311 206.917 452.222 188.694C443.389 144.139 430.861 86.0611 428.011 70C425.161 53.9389 416.344 45.9722 406.661 46.0278C396.978 46.0833 385 68.5556 381.322 82.2222C355.844 79.2278 330.361 80.2278 330.361 80.2278Z" fill="#864AFC"/>
<path opacity="0.3" d="M388.128 83.5946C388.128 83.5946 396.556 56.4057 403.889 56.5501C410.456 56.6779 413.494 77.1057 414.044 87.1668C414.064 87.5243 414 87.8814 413.859 88.2104C413.718 88.5393 413.502 88.8313 413.23 89.0635C412.957 89.2957 412.635 89.4619 412.288 89.5492C411.94 89.6365 411.578 89.6425 411.228 89.5668C402.272 87.6557 388.128 83.5946 388.128 83.5946Z" fill="white"/>
<path opacity="0.3" d="M287.222 83.1666C287.222 83.1666 286.533 54.4944 292.633 52.35C298.828 50.1666 308.744 68.3 312.756 77.5611C312.896 77.8903 312.96 78.2476 312.94 78.6052C312.921 78.9628 312.819 79.3111 312.644 79.6232C312.468 79.9353 312.223 80.2028 311.927 80.4049C311.632 80.607 311.293 80.7384 310.939 80.7889C301.883 82.0889 287.222 83.1666 287.222 83.1666Z" fill="white"/>
<path d="M452.222 188.694C456.567 206.205 482.4 252.75 498.2 278.378C514 304.005 527.956 336.155 527.089 376.783C526.222 417.411 510.9 428.505 489.667 434.672C468.433 440.839 455.344 439.117 443 440.75C430.656 442.383 417.761 447.678 409.406 440.75C401.05 433.822 396.689 429.739 387.389 434.578C378.089 439.417 354.461 438.089 348.294 436.478C342.128 434.867 339.089 422.528 349.406 416.167C332.511 421.578 289.406 416.622 279.083 374.889C270.828 341.433 295.75 272.267 301.306 256.455C306.989 240.233 309.561 231.255 306.428 216.594C327.089 210.761 452.222 188.694 452.222 188.694Z" fill="#864AFC"/>
<path d="M469.861 228.511C469.861 228.511 447.583 252.778 452.222 277.522C455.444 294.778 476.706 304.283 478.983 319.089C481.261 333.895 497.494 358.533 524.822 345.8C521.394 303.428 469.861 228.511 469.861 228.511Z" fill="#864AFC"/>
<g style="mix-blend-mode:multiply" opacity="0.19">
<path d="M507.161 292.078C507.161 292.078 525.406 403.333 456.494 439.795C504.461 468.878 569.794 380.906 569.794 380.906L507.161 292.078Z" fill="#864AFC"/>
</g>
<path d="M406 388.65C406 388.65 407.111 412.467 427.822 416.361C425.167 421.767 406.283 418.161 405.428 437.045C401.917 434.9 397.55 429.739 387.394 434.578C401.156 411.422 406 388.65 406 388.65Z" fill="#864AFC"/>
<path opacity="0.3" d="M300 242.183C300 242.183 307.089 235.883 327.778 238.85C348.467 241.817 374.772 301.345 371.406 336.911C368.039 372.478 372.45 413.545 339.544 421.272C306.733 434.011 236.111 385.556 236.111 385.556L300 242.183Z" fill="white"/>
<path d="M370.667 298.283C370.7 318.9 368.828 339.439 366.822 359.95C365.828 370.15 364.922 380.383 363.1 390.506C361.756 397.939 360.128 411.267 350.55 412.5C347.406 412.906 347.361 417.911 350.55 417.5C360.15 416.261 364.439 407.617 366.439 399.083C368.944 388.395 370.1 377.417 371.183 366.5C373.406 343.839 375.7 321.128 375.667 298.322C375.667 295.106 370.667 295.1 370.667 298.322V298.283Z" fill="#864AFC"/>
<path d="M413.178 338.333C411.617 354.594 408.133 370.594 403.678 386.294C401.456 394.022 399.05 401.683 396.489 409.294C395.211 413.098 393.904 416.894 392.567 420.683C391.272 424.361 390.022 428.117 387.344 431.05C385.178 433.422 388.706 436.967 390.878 434.583C396.144 428.817 398.017 420.322 400.472 413.106C403.25 405.006 405.85 396.856 408.211 388.628C412.933 372.167 416.544 355.394 418.178 338.333C418.489 335.133 413.483 335.156 413.178 338.333Z" fill="#864AFC"/>
<path d="M438.594 334.778C430.817 338.511 423.461 344.994 417.739 351.394C412.017 357.794 408.678 365.672 406.8 373.956C404.922 382.239 403.156 391.906 406.394 400.067C409.128 406.95 414.667 412.478 421.167 415.906C430.094 420.617 440.4 421.494 450.328 421.344C453.539 421.3 453.55 416.3 450.328 416.344C440.372 416.494 429.833 415.678 421.228 410.156C413.083 404.928 409.05 396.822 409.783 387.194C410.517 377.567 412.739 367.194 418.117 359.017C420.894 354.778 424.689 351.361 428.478 348.044C432.394 344.611 436.389 341.378 441.106 339.1C444.006 337.706 441.472 333.394 438.583 334.783L438.594 334.778Z" fill="#864AFC"/>
<path d="M430.333 415.322C423.883 417.822 417.167 420 410.889 422.911C408.525 423.977 406.551 425.752 405.24 427.989C403.929 430.227 403.346 432.817 403.572 435.4C403.856 438.578 408.856 438.606 408.572 435.4C408.072 429.8 411.95 427.783 416.494 426.022L431.667 420.144C434.639 418.994 433.333 414.156 430.339 415.322H430.333Z" fill="#864AFC"/>
<path d="M350.556 424.878C349.109 427.958 348.496 431.364 348.778 434.755C349.072 437.933 354.072 437.967 353.778 434.755C353.497 432.249 353.88 429.712 354.889 427.4C355.444 426.161 355.239 424.728 353.994 423.983C352.928 423.344 351.128 423.65 350.572 424.878H350.556Z" fill="#864AFC"/>
<path d="M367.144 425.178C365.428 428.472 365.294 432.033 365.406 435.672C365.5 438.883 370.5 438.895 370.406 435.672C370.322 432.983 370.183 430.161 371.461 427.706C372.944 424.85 368.633 422.322 367.144 425.178Z" fill="#864AFC"/>
<path d="M307.306 221.472C307.306 221.472 384.739 227.983 452.211 188.694C455.867 199.25 460.85 210.472 460.85 210.472C460.85 210.472 393.728 251.211 306.322 240.339C303.183 235.161 307.306 221.472 307.306 221.472Z" fill="#585858"/>
<path d="M273.994 136.783C275.961 135.061 292.639 134.65 294.394 135.745C296.15 136.839 294.206 148.65 284.194 148.65C274.183 148.65 272.472 138.117 273.994 136.783Z" fill="#888888"/>
<path d="M345.733 136.783C347.706 135.061 364.383 134.65 366.139 135.745C367.894 136.839 365.95 148.65 355.939 148.65C345.928 148.65 344.217 138.117 345.733 136.783Z" fill="#888888"/>
<path d="M309.961 185C309.961 185 315.178 171.811 318.294 172.094C321.411 172.378 328.561 185 328.561 185" stroke="#888888" stroke-width="9" stroke-miterlimit="10" stroke-linecap="round"/>
<path d="M238.406 162.728C245.047 162.472 251.698 162.583 258.328 163.061C261.539 163.295 261.528 158.295 258.328 158.061C251.698 157.583 245.047 157.472 238.406 157.728C235.2 157.85 235.183 162.85 238.406 162.728Z" fill="#864AFC"/>
<path d="M240.633 187.411C246.162 184.934 251.818 182.751 257.578 180.872C260.622 179.878 259.322 175.05 256.25 176.055C250.084 178.079 244.03 180.427 238.111 183.089C235.183 184.405 237.722 188.717 240.633 187.411Z" fill="#864AFC"/>
<path d="M377.111 163.706C382.601 160.389 388.347 157.517 394.294 155.117C397.244 153.933 395.961 149.1 392.967 150.294C386.608 152.831 380.463 155.872 374.589 159.389C371.811 161.056 374.344 165.367 377.111 163.706Z" fill="#864AFC"/>
<path d="M379.039 177.683C384.728 178.022 390.394 178.594 396.033 179.433C399.178 179.9 400.539 175.083 397.361 174.611C391.25 173.705 385.172 173.05 379.028 172.683C375.811 172.489 375.822 177.489 379.028 177.683H379.039Z" fill="#864AFC"/>
<path d="M315.2 81.4334C319.799 80.9337 324.429 80.7833 329.05 80.9834C332.267 81.1223 332.261 76.1223 329.05 75.9834C324.429 75.7833 319.799 75.9337 315.2 76.4334C312.039 76.7779 312 81.7834 315.2 81.4334Z" fill="#864AFC"/>
<path d="M383.456 83.4222C386.784 83.4798 390.072 84.1601 393.15 85.4278C396.133 86.6278 397.428 81.7945 394.478 80.6056C390.971 79.2001 387.233 78.4597 383.456 78.4222C380.239 78.3722 380.239 83.3722 383.456 83.4222Z" fill="#864AFC"/>
<path d="M309.961 267.556C318.503 267.556 325.428 261.074 325.428 253.078C325.428 245.082 318.503 238.6 309.961 238.6C301.419 238.6 294.494 245.082 294.494 253.078C294.494 261.074 301.419 267.556 309.961 267.556Z" fill="#FFD3B3"/>
<path d="M315.271 252.719C315.561 250.569 312.668 248.404 308.81 247.883C304.951 247.362 301.588 248.683 301.297 250.832C301.007 252.982 303.9 255.147 307.758 255.668C311.617 256.189 314.98 254.869 315.271 252.719Z" fill="#888888"/>
<path d="M308.294 252.278C306.276 257.568 305.656 263.289 306.494 268.889" stroke="#888888" stroke-width="7" stroke-miterlimit="10"/>
<path d="M101.667 443.878L137.333 484.194L156.706 475.805L142.694 468.817L147.106 449.105L101.667 443.878Z" fill="#585858"/>
<path d="M174.606 449.544L190.456 434.944L199.006 451L174.606 449.544Z" fill="#585858"/>
<path d="M129.183 360.711L230.494 371.772C230.494 371.772 241.656 398.056 229.611 416.828L152.389 421.639L158.233 405.161L145.306 400.783L155.472 378.172L129.183 360.711Z" fill="#585858"/>
</svg>
