<svg xmlns="http://www.w3.org/2000/svg" xmlns:xlink="http://www.w3.org/1999/xlink" width="500" zoomAndPan="magnify" viewBox="0 0 375 374.999991" height="500" preserveAspectRatio="xMidYMid meet" version="1.0"><path fill="#ffffff" d="M 330.898438 0.3125 L 162.902344 0.3125 C 153.316406 0.3125 145.546875 8.085938 145.546875 17.679688 L 145.546875 107.289062 C 140.789062 111.332031 134.972656 109.769531 129.652344 110.972656 C 124.046875 112.238281 124.949219 116.582031 124.589844 120.375 C 124.230469 124.164062 130.371094 132.308594 128.019531 134.835938 C 125.667969 137.363281 121.511719 135.554688 118.085938 134.835938 C 114.65625 134.117188 114.472656 135.382812 114.65625 139.355469 C 114.839844 143.332031 123.6875 147.132812 123.6875 147.132812 C 123.6875 147.132812 119.171875 160.15625 116.636719 163.589844 C 114.105469 167.039062 101.820312 173.738281 101.820312 173.738281 C 101.820312 173.738281 90.621094 181.699219 85.378906 186.9375 C 80.136719 192.175781 75.988281 216.777344 75.988281 216.777344 C 75.988281 216.777344 88.097656 208.816406 93.332031 206.832031 C 98.566406 204.851562 105.257812 207.019531 111.394531 209.1875 C 117.53125 211.355469 126.214844 215.875 126.214844 220.761719 C 126.214844 225.652344 122.960938 227.996094 122.960938 227.996094 L 124.222656 232.699219 C 124.222656 232.699219 120.339844 222.210938 116.269531 220.578125 C 115.996094 221.667969 109.21875 231.699219 105.976562 234.410156 C 102.722656 237.121094 93.507812 246.347656 90.253906 244.179688 C 90.253906 244.179688 84.5625 243.90625 84.5625 247.707031 C 84.5625 251.507812 88.632812 255.027344 94.050781 255.296875 L 88.632812 264.792969 L 106.246094 267.777344 L 107.042969 266.75 C 105.355469 270.023438 103.527344 274.117188 103.636719 276.285156 C 103.820312 280.257812 109.054688 280.804688 113.570312 281.53125 C 118.085938 282.253906 122.785156 288.046875 122.785156 288.046875 L 144.101562 282.078125 L 145.179688 273.988281 C 145.304688 274.085938 145.429688 274.195312 145.546875 274.28125 L 145.546875 352.945312 C 145.546875 362.539062 153.316406 370.316406 162.902344 370.316406 L 165.328125 370.316406 L 156.65625 374.660156 L 159.910156 378.460938 L 267.222656 378.1875 C 267.222656 378.1875 272.914062 376.566406 274.535156 374.390625 C 275.128906 373.601562 275.429688 372.015625 275.574219 370.316406 L 330.886719 370.316406 C 340.472656 370.316406 348.242188 362.539062 348.242188 352.945312 L 348.242188 17.679688 C 348.25 8.085938 340.484375 0.3125 330.898438 0.3125 Z M 124.679688 256.777344 C 126.300781 258.050781 134.796875 264.785156 142.632812 271.792969 Z M 111.042969 261.527344 L 111.667969 260.722656 C 111.667969 260.722656 114.832031 260.59375 118.25 259.75 C 117.957031 259.835938 117.667969 259.925781 117.355469 260.003906 C 114.433594 260.75 112.296875 261.246094 111.042969 261.527344 Z M 143.914062 161.617188 C 143.914062 161.617188 144.402344 162.453125 144.253906 164.464844 C 144.1875 162.78125 143.914062 161.617188 143.914062 161.617188 L 138.496094 160.898438 L 141.390625 150.953125 C 141.390625 150.953125 143.1875 150.621094 145.546875 149.992188 L 145.546875 161.859375 C 144.527344 161.664062 143.914062 161.617188 143.914062 161.617188 Z M 143.914062 161.617188 " fill-opacity="1" fill-rule="evenodd"/><path fill="#262626" d="M 122.058594 152.75 C 122.058594 152.75 99.652344 157.097656 97.128906 148.046875 C 94.605469 138.996094 98.574219 129.597656 98.574219 129.597656 C 98.574219 129.597656 90.621094 130.316406 90.261719 122.367188 C 89.902344 114.414062 91.351562 102.46875 96.410156 98.132812 C 101.46875 93.789062 101.828125 96.6875 105.082031 93.429688 C 108.335938 90.171875 106.167969 81.851562 114.113281 78.238281 C 122.066406 74.621094 126.039062 74.621094 133.261719 78.597656 C 140.488281 82.570312 141.574219 83.660156 148.800781 81.125 C 156.023438 78.597656 160.726562 76.777344 165.785156 84.378906 C 170.84375 91.980469 173.367188 98.484375 170.125 105.355469 C 166.871094 112.226562 167.601562 115.84375 161.453125 115.84375 L 158.929688 115.125 L 152.421875 103.375 C 152.421875 103.375 151.519531 101.019531 149.714844 102.828125 C 147.90625 104.636719 145.742188 107.707031 142.847656 108.613281 C 139.953125 109.515625 130.019531 109.15625 127.667969 112.226562 C 125.320312 115.300781 123.328125 117.109375 124.601562 120.363281 C 125.863281 123.621094 129.476562 134.109375 129.476562 134.109375 C 129.476562 134.109375 128.386719 136.277344 126.046875 136.277344 C 123.707031 136.277344 117.734375 132.476562 115.929688 135.554688 C 114.125 138.628906 117.734375 143.875 121.347656 145.683594 C 124.949219 147.511719 122.058594 152.75 122.058594 152.75 Z M 127.386719 296.792969 C 127.386719 296.792969 141.207031 336.9375 144.730469 337.753906 C 148.257812 338.570312 158.277344 333.410156 158.277344 333.410156 C 158.277344 333.410156 150.148438 306.28125 146.898438 299.503906 C 143.644531 292.71875 144.101562 282.058594 144.101562 282.058594 L 122.785156 288.027344 Z M 37.6875 300.320312 C 37.6875 300.320312 34.980469 305.746094 36.328125 311.984375 C 37.6875 318.226562 42.835938 324.195312 49.070312 324.738281 C 55.304688 325.28125 57.199219 323.648438 57.199219 323.648438 L 94.050781 255.289062 C 94.050781 255.289062 82.667969 255.832031 84.5625 247.695312 C 84.5625 247.695312 85.378906 243.089844 90.253906 244.167969 C 90.253906 244.167969 96.214844 242.808594 102.179688 237.113281 C 108.140625 231.414062 116.269531 220.566406 116.269531 220.566406 L 122.949219 227.984375 C 122.949219 227.984375 126.648438 228.800781 126.203125 220.753906 C 125.746094 212.703125 103.984375 204.742188 93.324219 206.824219 C 82.660156 208.902344 74.804688 216.496094 73.183594 221.386719 C 71.558594 226.265625 71.824219 237.394531 71.824219 243.898438 C 71.824219 250.398438 73.183594 256.105469 68.839844 260.710938 C 64.5 265.320312 55.566406 267.226562 52.042969 270.207031 C 48.515625 273.191406 46.078125 272.921875 46.351562 278.074219 C 46.621094 283.222656 50.421875 288.648438 48.515625 291.359375 C 46.632812 294.082031 39.855469 296.25 37.6875 300.320312 Z M 37.6875 300.320312 " fill-opacity="1" fill-rule="evenodd"/><path fill="#764af1" d="M 175.894531 343.175781 C 175.894531 343.175781 182.398438 349.960938 182.398438 354.839844 C 182.398438 359.722656 181.3125 361.625 181.3125 361.625 C 181.3125 361.625 155.839844 376.820312 148.246094 376.546875 C 140.664062 376.273438 136.050781 378.441406 130.632812 373.019531 C 125.210938 367.59375 111.394531 345.082031 111.394531 345.082031 L 99.199219 360.265625 L 107.054688 378.441406 L 27.65625 378.984375 L 40.125 363.25 L 47.984375 349.417969 L 49.070312 345.074219 C 49.070312 345.074219 55.304688 326.625 59.90625 318.488281 C 64.511719 310.351562 88.632812 264.773438 88.632812 264.773438 L 106.246094 267.757812 C 106.246094 267.757812 102.722656 276.984375 105.160156 278.0625 C 107.597656 279.152344 120.066406 283.039062 122.777344 288.007812 C 125.484375 292.972656 144.722656 337.734375 144.722656 337.734375 C 144.722656 337.734375 153.9375 335.566406 158.269531 333.390625 C 158.269531 333.390625 164.230469 339.628906 164.773438 345.324219 Z M 205.164062 65.949219 C 217.804688 66.671875 217.445312 81.503906 217.445312 81.503906 L 234.070312 81.144531 L 233.710938 64.871094 C 233.710938 64.871094 219.261719 64.511719 220.699219 50.769531 C 222.144531 37.023438 233.710938 38.472656 233.710938 38.472656 L 233.710938 26.894531 L 178.070312 27.253906 L 178.070312 81.144531 L 191.800781 81.503906 C 191.789062 81.503906 192.519531 65.230469 205.164062 65.949219 Z M 261.535156 65.230469 L 261.894531 77.886719 L 313.5625 77.527344 L 313.5625 25.445312 L 262.980469 25.445312 L 262.621094 39.550781 C 262.621094 39.550781 252.503906 40.269531 251.054688 51.128906 C 249.609375 61.976562 261.535156 65.230469 261.535156 65.230469 Z M 303.6875 104.285156 L 303.328125 91.632812 L 251.65625 91.992188 L 251.65625 144.070312 L 302.242188 144.070312 L 302.601562 129.96875 C 302.601562 129.96875 312.71875 129.246094 314.167969 118.390625 C 315.613281 107.542969 303.6875 104.285156 303.6875 104.285156 Z M 209.863281 94.527344 C 209.863281 94.527344 203.714844 85.128906 194.324219 87.65625 C 184.933594 90.183594 186.371094 99.59375 186.371094 99.59375 L 173.726562 104.65625 L 186.742188 153.839844 L 201.558594 149.863281 L 204.085938 131.601562 C 204.085938 131.601562 208.242188 126.351562 211.851562 124.726562 C 215.464844 123.105469 218.992188 124.269531 218.992188 124.269531 L 219.261719 139.191406 C 219.261719 139.191406 226.488281 125.808594 228.835938 124.183594 C 231.1875 122.5625 230.828125 126.710938 230.828125 126.710938 L 232.273438 124.902344 L 223.242188 91.632812 Z M 226.847656 143.351562 L 237.324219 140.09375 L 232.265625 124.902344 Z M 226.847656 143.351562 " fill-opacity="1" fill-rule="evenodd"/><path fill="#262626" d="M 336.027344 0 L 158.179688 0 C 151.042969 0 145.246094 5.8125 145.246094 12.945312 L 145.246094 81.046875 C 144.160156 81.269531 143.023438 81.40625 141.789062 81.367188 C 138.886719 81.269531 136.835938 79.910156 134.46875 78.335938 C 130.679688 75.808594 126.378906 72.949219 117.96875 75.222656 C 109.859375 77.421875 108.324219 83.632812 107.207031 88.160156 C 106.226562 92.128906 105.761719 92.855469 104.265625 92.671875 C 97.175781 91.863281 91.566406 100.769531 89.214844 116.503906 C 88.523438 121.121094 89.300781 124.652344 91.527344 126.972656 C 93.148438 128.675781 95.207031 129.355469 96.808594 129.617188 C 95.742188 132.078125 94.496094 136.714844 94.847656 144.761719 C 94.964844 147.597656 96.121094 149.914062 98.285156 151.625 C 101.691406 154.335938 107.121094 155.035156 111.851562 155.035156 C 115.328125 155.035156 118.425781 154.65625 120.074219 154.402344 C 118.621094 158.554688 116.550781 162.832031 114.074219 164.25 C 113.628906 164.503906 113.09375 164.804688 112.480469 165.152344 C 104.34375 169.722656 85.28125 180.40625 81.523438 191.710938 C 77.667969 203.285156 74.035156 217.769531 74.007812 217.914062 C 73.988281 217.972656 73.988281 218.042969 73.976562 218.097656 C 70.96875 222.335938 69.617188 228.035156 70.085938 238.597656 C 70.917969 257.4375 70.617188 258.582031 63.800781 263.140625 C 61.441406 264.71875 58.820312 265.6875 56.277344 266.632812 C 51.109375 268.546875 45.769531 270.53125 45.128906 277.546875 C 44.757812 281.5625 45.671875 284.730469 46.410156 287.285156 C 47.496094 291.046875 47.671875 292.078125 45.03125 293.34375 C 38.667969 296.386719 33.648438 298.785156 34.863281 310.3125 C 35.476562 316.085938 37.84375 320.617188 41.730469 323.417969 C 44.496094 325.410156 47.933594 326.421875 51.855469 326.421875 C 52.886719 326.421875 53.953125 326.34375 55.042969 326.207031 C 51.964844 332.308594 49.332031 338.414062 48.117188 344.246094 C 47.03125 349.445312 44.671875 354.492188 41.28125 358.835938 L 26.394531 377.886719 C 26.054688 378.324219 25.988281 378.929688 26.230469 379.421875 C 26.472656 379.929688 26.976562 380.238281 27.542969 380.238281 L 106.945312 380.238281 C 107.441406 380.238281 107.90625 379.988281 108.171875 379.570312 C 108.441406 379.152344 108.472656 378.625 108.265625 378.179688 L 100.003906 360.082031 L 110.792969 347.269531 C 117.542969 359.214844 125.660156 371.976562 131.203125 375.378906 C 134.914062 377.65625 138.605469 378.890625 142.925781 378.890625 C 146.683594 378.890625 150.925781 377.945312 156.042969 375.945312 C 156.289062 376.683594 156.675781 377.363281 157.21875 377.9375 C 158.230469 379.015625 159.65625 379.636719 161.132812 379.636719 L 266.882812 379.636719 C 272.109375 379.636719 276.390625 375.59375 276.820312 370.472656 L 336.035156 370.472656 C 343.171875 370.472656 348.96875 364.660156 348.96875 357.523438 L 348.96875 12.945312 C 348.96875 5.8125 343.164062 0 336.027344 0 Z M 120.773438 151.359375 C 120.628906 151.390625 106.035156 154.074219 100.101562 149.359375 C 98.613281 148.183594 97.847656 146.636719 97.769531 144.664062 C 97.273438 133 100.324219 129.316406 100.34375 129.304688 C 100.75 128.859375 100.847656 128.207031 100.578125 127.664062 C 100.304688 127.121094 99.722656 126.808594 99.121094 126.867188 C 99.089844 126.867188 95.710938 127.148438 93.644531 124.992188 C 92.078125 123.347656 91.554688 120.644531 92.109375 116.960938 C 94.128906 103.382812 98.769531 95.003906 103.945312 95.597656 C 108.257812 96.09375 109.210938 92.261719 110.042969 88.890625 C 111.09375 84.632812 112.289062 79.820312 118.734375 78.070312 C 125.863281 76.136719 129.261719 78.390625 132.855469 80.792969 C 135.371094 82.464844 137.964844 84.195312 141.691406 84.3125 C 145.0625 84.417969 147.847656 83.464844 150.316406 82.628906 C 154.453125 81.222656 157.714844 80.101562 163.035156 83.300781 C 168.242188 86.429688 170.554688 100.46875 167.289062 109.207031 C 166.210938 112.101562 164.125 115.386719 160.277344 115.152344 C 157.414062 107.894531 152.898438 101.304688 152.617188 100.886719 C 152.394531 100.554688 152.042969 100.339844 151.65625 100.273438 C 151.257812 100.203125 150.859375 100.3125 150.546875 100.542969 C 150.453125 100.613281 148.1875 102.332031 145.082031 105.726562 C 142.722656 108.3125 138.457031 108.816406 133.058594 109.457031 C 132.390625 109.535156 131.699219 109.625 130.992188 109.710938 C 127.648438 110.128906 125.261719 111.363281 123.902344 113.386719 C 122.609375 115.300781 122.339844 117.828125 123.105469 120.695312 C 123.582031 122.464844 124.464844 124.59375 125.320312 126.644531 C 126.464844 129.394531 127.765625 132.503906 127.765625 134.207031 C 127.765625 134.476562 127.699219 134.527344 127.648438 134.566406 C 127.097656 134.984375 125.242188 134.855469 123.871094 134.488281 C 123.027344 134.136719 118.601562 132.445312 115.6875 134.058594 C 114.804688 134.546875 113.675781 135.554688 113.355469 137.578125 C 112.53125 142.808594 119.164062 146.5 122 147.824219 C 121.765625 148.824219 121.453125 150.050781 121.066406 151.359375 C 120.96875 151.332031 120.871094 151.34375 120.773438 151.359375 Z M 274.253906 363.695312 L 190.441406 363.695312 L 192.101562 357.921875 C 194.238281 357.804688 197.324219 356.910156 201.511719 354.082031 C 207.257812 350.195312 210.792969 347.054688 212.464844 345.433594 C 214.777344 348.058594 219.273438 352.546875 222.496094 351.886719 C 223.933594 351.59375 224.613281 350.738281 224.933594 350.070312 C 225.679688 348.523438 225.195312 346.519531 224.71875 345.238281 C 226.019531 344.109375 227.351562 342.019531 226.808594 338.976562 C 226.613281 337.878906 226.496094 336.753906 226.390625 335.664062 C 226.097656 332.757812 225.835938 330.007812 224.019531 327.90625 C 222.070312 325.652344 218.058594 325.128906 213.621094 325.109375 C 214.542969 324.496094 215.71875 323.902344 217.136719 323.515625 C 218.417969 323.164062 219.699219 322.910156 220.953125 322.679688 C 224.46875 322.007812 227.777344 321.367188 227.855469 318.363281 C 227.875 317.457031 227.4375 316.117188 225.253906 314.84375 C 221.789062 312.832031 215.894531 312.015625 211.792969 314.484375 C 209.183594 316.058594 205.871094 318.605469 202.6875 321.25 L 205.996094 309.769531 C 206.269531 308.835938 207.132812 308.183594 208.105469 308.183594 C 208.105469 308.183594 208.113281 308.183594 208.113281 308.183594 L 284.917969 308.5625 C 285.585938 308.5625 286.21875 308.875 286.625 309.410156 C 287.042969 309.945312 287.191406 310.625 287.023438 311.277344 L 277.847656 348.953125 C 277.664062 349.195312 277.546875 349.496094 277.546875 349.824219 C 277.546875 349.914062 277.554688 349.992188 277.574219 350.078125 Z M 95.605469 254.839844 C 95.332031 254.375 94.816406 254.132812 94.292969 254.121094 C 94.003906 254.132812 87.078125 254.335938 86.195312 248.988281 C 86.050781 248.113281 86.011719 246.957031 86.621094 246.414062 C 87.542969 245.605469 89.835938 245.949219 90.796875 246.238281 C 91.148438 246.347656 91.527344 246.316406 91.855469 246.160156 C 92.554688 245.832031 108.441406 238.074219 115.667969 222.289062 C 117.753906 224.125 121.550781 228.054688 122.824219 233.339844 C 122.921875 233.75 123.191406 234.097656 123.5625 234.292969 L 127.320312 236.277344 L 125.019531 239.347656 C 124.746094 239.71875 124.660156 240.191406 124.785156 240.640625 C 124.796875 240.6875 125.425781 242.855469 125.609375 245.714844 L 125.570312 245.734375 C 124.855469 246.09375 124.164062 246.453125 123.445312 246.667969 C 122.738281 246.910156 122 247.054688 121.261719 247.105469 C 120.523438 247.164062 119.773438 247.132812 119.015625 247.035156 C 118.277344 246.9375 117.464844 246.765625 116.804688 246.578125 L 116.675781 246.539062 C 116.296875 246.433594 115.878906 246.578125 115.65625 246.929688 C 115.375 247.355469 115.492188 247.941406 115.929688 248.210938 C 116.804688 248.785156 117.65625 249.125 118.609375 249.347656 C 119.550781 249.5625 120.53125 249.621094 121.503906 249.503906 C 122.472656 249.398438 123.445312 249.136719 124.308594 248.6875 C 124.804688 248.457031 125.261719 248.164062 125.679688 247.824219 C 125.609375 250.546875 125.007812 253.527344 123.164062 255.785156 C 120.726562 258.757812 116.445312 259.992188 110.441406 259.4375 C 109.839844 259.390625 109.257812 259.710938 108.996094 260.253906 C 108.976562 260.292969 107.5 263.386719 105.878906 266.960938 L 91.1875 263.824219 C 93.816406 259.332031 95.625 256.359375 95.644531 256.328125 C 95.875 255.882812 95.875 255.308594 95.605469 254.839844 Z M 105.792969 274.445312 C 106.304688 273.171875 106.945312 271.648438 107.714844 269.925781 C 109.0625 266.875 110.472656 263.871094 111.152344 262.421875 C 117.125 262.792969 121.628906 261.449219 124.601562 258.457031 C 127.535156 261.296875 137.417969 270.78125 143.730469 275.574219 C 143.554688 276.703125 143.273438 278.792969 143.0625 281.25 L 122.242188 285.996094 C 122.132812 286.023438 122.027344 286.0625 121.929688 286.101562 C 118.40625 281.941406 113.871094 278.9375 107.539062 278.394531 C 107.53125 278.394531 106.152344 278.160156 105.617188 277.253906 C 105.246094 276.613281 105.304688 275.671875 105.792969 274.445312 Z M 146.179688 292.378906 C 145.605469 289.726562 145.632812 286.089844 145.867188 282.84375 C 145.9375 282.640625 145.945312 282.417969 145.917969 282.195312 C 146.0625 280.335938 146.257812 278.644531 146.421875 277.382812 C 148.429688 278.546875 150.140625 279.023438 151.742188 279.023438 C 153.113281 279.023438 154.402344 278.675781 155.734375 278.121094 L 155.734375 321.277344 C 151.984375 310.632812 147.015625 296.199219 146.179688 292.378906 Z M 142.867188 284.285156 C 142.730469 287.296875 142.789062 290.484375 143.34375 293.003906 C 144.460938 298.132812 152.382812 320.597656 155.761719 330.074219 C 155.792969 330.296875 155.859375 330.503906 155.976562 330.6875 C 156.421875 331.921875 156.761719 332.894531 156.988281 333.515625 C 153.09375 335.273438 147.644531 336.199219 144.710938 336.519531 C 140.46875 325.566406 134.546875 310.429688 131.660156 303.910156 L 131.050781 302.527344 C 128.980469 297.824219 126.796875 292.835938 123.863281 288.617188 Z M 158.949219 335.808594 C 160.277344 336.984375 162.503906 339.679688 162.949219 344.792969 C 157.121094 346.113281 151.5 347.367188 149.089844 347.902344 C 148.480469 346.308594 147.296875 343.195312 145.789062 339.320312 C 148.65625 338.976562 154.578125 338.027344 158.949219 335.808594 Z M 165.8125 344.140625 C 165.269531 339.035156 163.164062 335.925781 161.484375 334.226562 C 162.046875 333.777344 162.542969 333.300781 162.949219 332.777344 C 165.609375 329.402344 167.347656 324.613281 169.191406 319.539062 C 170.230469 316.679688 171.300781 313.726562 172.613281 310.769531 C 173.222656 309.390625 173.71875 308.15625 174.15625 307.066406 C 176.371094 301.566406 176.894531 300.253906 183.613281 300.527344 C 189.050781 300.738281 191.003906 302.507812 191.671875 303.519531 C 187.914062 305.628906 181.914062 303.976562 181.847656 303.957031 C 181.429688 303.839844 180.972656 303.917969 180.613281 304.160156 C 180.253906 304.414062 180.03125 304.8125 179.992188 305.238281 C 179.867188 306.890625 178.777344 310.839844 178.195312 312.832031 C 176.164062 313.765625 174.679688 314.582031 174.253906 314.8125 C 173.554688 315.210938 173.300781 316.097656 173.6875 316.796875 C 173.960938 317.273438 174.457031 317.546875 174.960938 317.546875 C 175.203125 317.546875 175.445312 317.488281 175.671875 317.359375 C 178.828125 315.59375 187.730469 311.394531 191.898438 312.570312 C 192.257812 313.054688 192.742188 314.09375 191.644531 315.28125 C 189.390625 317.710938 182.738281 322.035156 182.671875 322.085938 C 182.226562 322.375 181.972656 322.890625 182.011719 323.417969 C 182.019531 323.570312 183.109375 338.996094 174.84375 341.921875 C 174.707031 341.972656 174.59375 342.039062 174.484375 342.117188 C 172.027344 342.71875 168.960938 343.421875 165.8125 344.140625 Z M 193.042969 309.855469 C 189.953125 308.835938 185.476562 309.964844 181.652344 311.402344 C 182.019531 310.050781 182.417969 308.457031 182.671875 307.125 C 185.292969 307.613281 190.527344 308.109375 194.09375 305.425781 C 194.886719 305.269531 196.375 305.164062 197.179688 305.65625 C 197.511719 305.863281 197.695312 306.144531 197.78125 306.582031 C 197.957031 307.417969 197.773438 308.117188 197.21875 308.699219 C 196.34375 309.632812 194.664062 310.089844 193.042969 309.855469 Z M 183.703125 335.234375 L 187.285156 335.234375 C 185.207031 337.238281 183.246094 339.007812 181.554688 340.019531 C 182.507812 338.558594 183.195312 336.90625 183.703125 335.234375 Z M 180.777344 343.574219 C 183.875 342.652344 187.246094 339.359375 191.148438 335.546875 C 192.371094 334.351562 193.636719 333.117188 194.925781 331.929688 C 198.578125 328.566406 207.675781 320.363281 213.289062 316.980469 C 215.910156 315.40625 219.757812 315.707031 222.417969 316.71875 C 224.128906 317.371094 224.867188 318.117188 224.933594 318.292969 C 224.914062 318.953125 222.195312 319.46875 220.398438 319.820312 C 219.15625 320.0625 217.746094 320.324219 216.359375 320.714844 C 211.191406 322.132812 208.707031 325.679688 208.601562 325.828125 C 208.289062 326.285156 208.261719 326.875 208.523438 327.351562 C 208.785156 327.839844 209.300781 328.128906 209.851562 328.113281 C 213.398438 327.976562 220.011719 327.730469 221.804688 329.820312 C 222.679688 330.832031 223.03125 332.273438 223.261719 333.945312 C 221.523438 331.804688 219.3125 330.484375 217.261719 330.046875 C 213.542969 329.269531 205.027344 331.132812 204.074219 331.347656 C 203.289062 331.523438 202.792969 332.300781 202.96875 333.089844 C 203.140625 333.875 203.917969 334.363281 204.707031 334.195312 C 207.144531 333.652344 214.039062 332.347656 216.660156 332.902344 C 219.582031 333.515625 222.960938 336.675781 223.457031 342.15625 C 223.457031 342.195312 223.488281 342.226562 223.488281 342.265625 C 223.378906 342.4375 223.253906 342.59375 223.136719 342.730469 C 221.652344 341.011719 218.582031 337.628906 215.757812 335.644531 C 211.378906 332.574219 203.375 337.628906 202.480469 338.210938 C 201.8125 338.648438 201.617188 339.550781 202.054688 340.230469 C 202.492188 340.902344 203.394531 341.097656 204.074219 340.660156 C 206.394531 339.144531 211.910156 336.507812 214.097656 338.046875 C 217.28125 340.269531 221.019531 344.714844 221.679688 345.519531 C 222.15625 346.511719 222.632812 348.171875 222.320312 348.816406 C 222.292969 348.875 222.242188 348.980469 221.914062 349.046875 C 220.503906 349.359375 216.4375 345.761719 213.667969 342.371094 C 213.398438 342.039062 213 341.847656 212.570312 341.835938 C 212.105469 341.816406 211.738281 342 211.453125 342.320312 C 211.414062 342.359375 207.84375 346.308594 199.878906 351.691406 C 192.886719 356.417969 190.082031 354.773438 190.070312 354.773438 C 189.585938 354.394531 188.914062 354.367188 188.390625 354.695312 C 186.730469 355.753906 185.136719 356.757812 183.585938 357.730469 C 184.292969 350.605469 180.710938 346.132812 178.601562 344.167969 C 179.59375 343.898438 180.351562 343.703125 180.777344 343.574219 Z M 182.324219 361.917969 C 182.359375 361.890625 182.410156 361.871094 182.449219 361.839844 C 184.585938 360.519531 186.820312 359.128906 189.148438 357.640625 L 187.402344 363.695312 L 179.417969 363.695312 C 180.371094 363.113281 181.339844 362.53125 182.324219 361.917969 Z M 289.859375 311.964844 C 290.230469 310.441406 289.890625 308.847656 288.929688 307.613281 C 287.957031 306.367188 286.5 305.65625 284.9375 305.648438 L 208.132812 305.269531 C 208.125 305.269531 208.113281 305.269531 208.105469 305.269531 C 205.84375 305.269531 203.832031 306.785156 203.199219 308.960938 L 198.664062 324.671875 C 196.324219 326.710938 194.277344 328.566406 192.957031 329.792969 C 192.050781 330.628906 191.167969 331.484375 190.292969 332.328125 L 184.410156 332.328125 C 185.0625 328.832031 185.050781 325.59375 185.003906 324.085938 C 186.847656 322.863281 191.761719 319.5 193.820312 317.292969 C 195.226562 315.765625 195.460938 314.132812 195.140625 312.761719 C 196.800781 312.519531 198.324219 311.8125 199.34375 310.730469 C 200.558594 309.457031 201.015625 307.777344 200.648438 306.007812 C 200.394531 304.792969 199.722656 303.820312 198.722656 303.199219 C 197.335938 302.34375 195.597656 302.324219 194.421875 302.449219 C 193.488281 300.679688 190.898438 297.921875 183.738281 297.628906 C 175.320312 297.289062 173.894531 299.953125 171.464844 306 C 171.039062 307.066406 170.554688 308.273438 169.960938 309.605469 C 168.609375 312.648438 167.511719 315.648438 166.464844 318.554688 C 164.628906 323.609375 163.046875 327.976562 160.675781 330.988281 C 160.375 331.367188 159.988281 331.71875 159.550781 332.058594 C 159.328125 331.425781 159.015625 330.570312 158.648438 329.539062 L 158.648438 276.710938 C 158.96875 276.535156 159.289062 276.363281 159.617188 276.175781 C 160.8125 275.515625 162.164062 274.777344 163.695312 274.039062 C 171.214844 270.402344 200.035156 254.773438 203.609375 252.828125 C 213.445312 253.246094 217.328125 245.082031 218.195312 239.929688 L 218.417969 239.910156 C 218.3125 241.144531 218.40625 242.671875 219.292969 243.769531 C 219.765625 244.363281 220.640625 245.042969 222.144531 245.042969 C 222.273438 245.042969 222.398438 245.042969 222.523438 245.035156 C 227.214844 244.695312 231.515625 238.570312 232.449219 233.28125 C 232.992188 230.210938 232.574219 227.148438 231.214844 224.039062 C 231.207031 223.96875 231.207031 223.902344 231.195312 223.835938 C 230.914062 222.53125 231.515625 220.722656 232.042969 219.121094 C 232.683594 217.15625 233.292969 215.308594 232.5 213.871094 C 232.226562 213.375 231.664062 212.734375 230.546875 212.453125 C 226.320312 211.390625 223.875 214.765625 223.738281 214.960938 C 222.398438 214.25 220.960938 213.773438 219.574219 213.472656 C 222.175781 207.476562 224.128906 206.300781 227.246094 204.433594 C 227.894531 204.042969 228.574219 203.636719 229.3125 203.148438 C 230.148438 202.613281 232.351562 201.1875 231.789062 199.28125 C 231.273438 197.542969 228.964844 196.859375 223.535156 196.859375 C 220.136719 196.859375 217.175781 199.425781 214.007812 203.257812 C 215.988281 193.914062 219.882812 175.582031 220.4375 172.980469 C 220.738281 171.539062 222.164062 170.402344 224.332031 168.691406 C 226.214844 167.203125 228.554688 165.347656 231.011719 162.539062 C 235.539062 157.386719 241.472656 147.511719 240.460938 143.789062 C 240.226562 142.933594 239.664062 142.320312 238.878906 142.050781 C 238.695312 141.992188 238.507812 141.941406 238.324219 141.914062 C 238.402344 141.835938 238.480469 141.765625 238.539062 141.671875 C 238.734375 141.339844 238.789062 140.941406 238.683594 140.5625 L 225.527344 90.628906 C 225.320312 89.851562 224.527344 89.386719 223.75 89.589844 L 210.445312 93.097656 C 207.753906 87.433594 201.277344 84.320312 195.101562 85.953125 C 188.925781 87.585938 184.816406 93.488281 185.273438 99.746094 L 173.046875 102.972656 C 172.667969 103.070312 172.347656 103.316406 172.15625 103.65625 C 171.960938 103.996094 171.914062 104.394531 172.007812 104.761719 C 177.078125 123.386719 184.644531 151.574219 185.109375 154.257812 C 185.089844 154.792969 185.363281 155.296875 185.828125 155.570312 C 186.050781 155.707031 186.3125 155.765625 186.566406 155.765625 C 186.710938 155.765625 186.867188 155.746094 187.003906 155.695312 L 200.558594 152.121094 C 200.578125 152.789062 200.597656 153.449219 200.628906 154.113281 C 200.800781 158.863281 200.976562 163.785156 199.851562 166.785156 C 198.78125 169.636719 191.429688 185.945312 186.441406 196.957031 C 186.410156 197.015625 186.382812 197.074219 186.351562 197.144531 C 184.925781 200.292969 183.703125 202.984375 182.875 204.800781 C 178.183594 195.617188 170.660156 181.464844 164.511719 172.492188 C 162.6875 169.828125 160.675781 167.730469 158.589844 166.066406 C 158.597656 165.988281 158.617188 165.902344 158.617188 165.824219 L 158.617188 139.453125 C 158.988281 137.910156 159.132812 136.597656 159.191406 135.808594 L 163.570312 132.894531 C 164.113281 132.535156 164.347656 131.863281 164.152344 131.242188 L 162.570312 126.234375 C 162.734375 123.71875 162.191406 120.878906 161.289062 118.03125 C 165.105469 117.75 168.203125 115.007812 170 110.207031 C 174.214844 98.910156 170.445312 84.339844 164.511719 80.785156 C 162.335938 79.480469 160.40625 78.789062 158.628906 78.488281 L 158.628906 23.007812 C 158.628906 18.070312 162.636719 14.046875 167.582031 14.046875 L 326.597656 14.046875 C 331.53125 14.046875 335.550781 18.058594 335.550781 23.007812 L 335.550781 339.414062 C 335.550781 344.355469 331.539062 348.378906 326.597656 348.378906 L 280.984375 348.378906 Z M 166.53125 269.199219 C 154.121094 262.492188 161.53125 248.171875 161.851562 247.570312 C 161.898438 247.484375 161.929688 247.394531 161.957031 247.308594 C 173.136719 244.023438 189.140625 239.210938 191.722656 237.917969 C 194.414062 236.578125 197.9375 231.378906 203.425781 222.980469 C 205.667969 219.546875 207.988281 216 209.988281 213.335938 C 210.621094 212.5 211.222656 211.675781 211.8125 210.878906 C 216.417969 204.667969 220.050781 199.757812 223.523438 199.757812 C 226.320312 199.757812 227.769531 199.960938 228.488281 200.136719 C 228.304688 200.28125 228.050781 200.46875 227.71875 200.679688 C 227.011719 201.136719 226.351562 201.535156 225.730469 201.90625 C 222.253906 203.996094 219.710938 205.542969 216.59375 212.996094 C 214.386719 212.800781 212.738281 212.929688 212.570312 212.949219 C 211.765625 213.027344 211.183594 213.726562 211.25 214.53125 C 211.328125 215.339844 212.046875 215.921875 212.832031 215.855469 C 212.921875 215.84375 221.261719 215.144531 224.894531 219.5 C 226.285156 221.160156 227.359375 222.785156 228.15625 224.378906 C 222.222656 219.160156 214.125 219.714844 213.699219 219.75 C 212.902344 219.820312 212.300781 220.519531 212.359375 221.316406 C 212.417969 222.113281 213.117188 222.714844 213.921875 222.65625 C 214.378906 222.628906 225.195312 221.910156 229.554688 230.996094 C 229.605469 231.09375 229.671875 231.183594 229.742188 231.269531 C 229.710938 231.765625 229.664062 232.261719 229.574219 232.746094 C 229.429688 233.542969 229.195312 234.351562 228.90625 235.140625 C 228.226562 233.855469 227.324219 232.386719 226.359375 231.414062 C 224.359375 229.414062 217.679688 227.847656 216.359375 227.558594 C 215.570312 227.382812 214.796875 227.878906 214.621094 228.664062 C 214.445312 229.453125 214.941406 230.230469 215.726562 230.40625 C 218.671875 231.054688 223.273438 232.445312 224.300781 233.484375 C 225.4375 234.625 226.652344 237.042969 227.234375 238.347656 C 225.789062 240.464844 223.933594 241.992188 222.3125 242.109375 C 221.933594 242.136719 221.671875 242.078125 221.5625 241.933594 C 221.125 241.390625 221.3125 239.679688 221.59375 238.707031 C 221.730469 238.25 221.632812 237.742188 221.332031 237.363281 C 221.03125 236.984375 220.5625 236.800781 220.078125 236.828125 L 213.425781 237.382812 C 212.621094 237.453125 212.027344 238.152344 212.097656 238.957031 C 212.164062 239.765625 212.863281 240.347656 213.667969 240.289062 L 215.164062 240.164062 C 214.4375 243.34375 211.851562 250.4375 203.386719 249.875 C 203.101562 249.855469 202.832031 249.914062 202.589844 250.050781 C 202.308594 250.203125 178.148438 263.335938 166.640625 269.277344 C 166.601562 269.246094 166.570312 269.21875 166.53125 269.199219 Z M 153.171875 216.730469 L 155.578125 219.382812 L 155.734375 244.75 C 154.675781 242.964844 152.65625 239.53125 150.035156 235.0625 C 150.597656 233.261719 151.800781 225.855469 153.171875 216.730469 Z M 158.648438 245.238281 L 158.511719 222.621094 L 174.691406 240.464844 C 169.398438 242.070312 163.609375 243.78125 158.648438 245.238281 Z M 188.324219 100.5625 C 187.390625 95.304688 190.691406 90.125 195.847656 88.765625 C 201.007812 87.402344 206.433594 90.28125 208.210938 95.316406 C 208.464844 96.035156 209.222656 96.433594 209.960938 96.238281 L 223.078125 92.777344 L 231.273438 123.882812 C 230.875 123.472656 230.382812 123.210938 229.789062 123.105469 C 227.546875 122.707031 224.261719 126.671875 220.011719 134.90625 L 220.765625 126.058594 C 220.863281 124.921875 220.4375 123.84375 219.59375 123.085938 C 218.746094 122.328125 217.621094 122.015625 216.503906 122.25 C 212.757812 123.007812 207.726562 124.59375 205.105469 127.878906 C 202.027344 131.726562 200.53125 138.558594 200.53125 148.777344 C 200.53125 148.882812 200.53125 149 200.539062 149.105469 L 187.730469 152.488281 C 187.441406 151.167969 186.914062 149.15625 186.101562 146.015625 C 185.023438 141.855469 183.496094 136.082031 181.554688 128.847656 C 178.894531 118.914062 176.203125 109 175.222656 105.394531 L 187.265625 102.214844 C 187.992188 102.042969 188.460938 101.3125 188.324219 100.5625 Z M 227.886719 144.917969 L 234.539062 143.15625 C 232.894531 144.304688 231.253906 146.035156 229.710938 147.667969 C 228.867188 148.5625 228.058594 149.40625 227.488281 149.902344 C 227.253906 150.105469 227.089844 150.183594 227.011719 150.222656 C 226.945312 150.136719 226.855469 149.992188 226.789062 149.835938 C 226.953125 149.058594 227.359375 147.210938 227.886719 144.917969 Z M 228.625 141.699219 C 228.777344 141.039062 228.945312 140.367188 229.097656 139.6875 C 229.402344 138.453125 229.828125 137.023438 230.285156 135.515625 C 231.324219 132.066406 232.070312 129.414062 232.207031 127.402344 L 235.5 139.890625 Z M 202.609375 167.808594 C 203.9375 164.261719 203.746094 159.050781 203.570312 154.003906 C 203.511719 152.265625 203.445312 150.46875 203.445312 148.785156 C 203.445312 144.023438 203.785156 140.039062 204.464844 136.828125 C 204.316406 141.027344 204.316406 145.851562 204.929688 148.144531 C 205.105469 148.796875 205.695312 149.222656 206.335938 149.222656 C 206.464844 149.222656 206.589844 149.203125 206.714844 149.175781 C 207.492188 148.96875 207.957031 148.164062 207.746094 147.386719 C 206.890625 144.167969 207.484375 133.417969 207.792969 129.550781 C 207.804688 129.441406 207.792969 129.34375 207.785156 129.246094 C 208.667969 128.324219 209.84375 127.585938 211.105469 126.992188 C 210.753906 130.648438 209.980469 139.609375 210.433594 144.558594 C 210.503906 145.316406 211.144531 145.878906 211.882812 145.878906 C 211.929688 145.878906 211.96875 145.878906 212.019531 145.871094 C 212.824219 145.792969 213.40625 145.089844 213.339844 144.285156 C 212.832031 138.707031 214.019531 127.148438 214.15625 125.828125 C 215.242188 125.496094 216.269531 125.253906 217.085938 125.085938 C 217.367188 125.03125 217.574219 125.15625 217.660156 125.242188 C 217.746094 125.320312 217.902344 125.503906 217.875 125.789062 L 216.4375 142.527344 C 216.378906 143.234375 216.835938 143.875 217.515625 144.0625 C 218.203125 144.246094 218.914062 143.894531 219.214844 143.253906 C 222.652344 135.691406 227.378906 127.265625 229.273438 126.058594 C 229.683594 127.363281 228.273438 132.058594 227.496094 134.652344 C 227.03125 136.207031 226.59375 137.664062 226.273438 138.976562 C 224.992188 144.304688 223.875 149.515625 223.867188 149.5625 C 223.816406 149.777344 223.828125 149.992188 223.875 150.203125 C 223.960938 150.574219 224.476562 152.449219 226.117188 152.996094 C 226.847656 153.238281 227.992188 153.265625 229.371094 152.101562 C 230.070312 151.507812 230.886719 150.640625 231.828125 149.652344 C 233.089844 148.308594 236.316406 144.90625 237.683594 144.761719 C 237.800781 146.859375 233.789062 154.910156 228.808594 160.574219 C 226.515625 163.179688 224.292969 164.949219 222.503906 166.367188 C 220.039062 168.324219 218.085938 169.867188 217.574219 172.347656 C 216.902344 175.507812 211.300781 201.886719 210.183594 207.15625 C 204.839844 208.234375 199.742188 206.941406 194.996094 203.296875 C 192.140625 201.109375 190.21875 198.640625 189.410156 197.503906 C 194.414062 186.480469 201.53125 170.703125 202.609375 167.808594 Z M 229.265625 218.1875 C 229.097656 218.691406 228.925781 219.21875 228.769531 219.75 C 228.273438 219.050781 227.730469 218.34375 227.136719 217.632812 C 226.828125 217.253906 226.488281 216.914062 226.128906 216.59375 C 226.351562 216.3125 227.699219 214.726562 229.828125 215.261719 C 229.886719 215.28125 229.925781 215.289062 229.945312 215.289062 C 230.0625 215.757812 229.566406 217.273438 229.265625 218.1875 Z M 140.109375 160.023438 L 142.5 152.050781 C 143.449219 152.070312 144.363281 152.011719 145.246094 151.914062 L 145.246094 160.3125 C 143.179688 160.011719 141.402344 159.972656 140.109375 160.023438 Z M 148.160156 151.34375 C 150.34375 150.699219 152.257812 149.652344 153.871094 148.144531 C 154.589844 147.472656 155.199219 146.753906 155.734375 146.003906 L 155.734375 164.046875 C 153.140625 162.480469 150.539062 161.5 148.160156 160.898438 Z M 151.539062 118.03125 C 148.128906 117.671875 145.003906 119.9375 143.984375 123.269531 C 143.953125 123.269531 143.933594 123.261719 143.90625 123.269531 L 128.386719 126.429688 C 128.261719 126.117188 128.125 125.796875 127.988281 125.488281 C 127.164062 123.523438 126.320312 121.492188 125.902344 119.917969 C 125.523438 118.496094 125.289062 116.496094 126.300781 114.988281 C 127.164062 113.695312 128.863281 112.890625 131.332031 112.578125 C 132.03125 112.492188 132.710938 112.414062 133.378906 112.335938 C 139.371094 111.625 144.109375 111.0625 147.207031 107.679688 C 148.800781 105.9375 150.167969 104.65625 151.082031 103.859375 C 152.597656 106.230469 155.734375 111.429688 157.78125 116.765625 C 157.8125 116.914062 157.871094 117.058594 157.9375 117.195312 C 158.433594 118.535156 158.851562 119.878906 159.152344 121.179688 L 157.0625 122.074219 C 156.035156 119.878906 154.015625 118.292969 151.539062 118.03125 Z M 155.277344 125.980469 C 155.132812 127.324219 154.519531 128.519531 153.539062 129.363281 C 152.585938 130.191406 151.402344 130.578125 150.207031 130.445312 C 149.015625 130.316406 147.9375 129.695312 147.179688 128.683594 C 146.402344 127.652344 146.050781 126.351562 146.199219 125.011719 C 146.46875 122.445312 148.5 120.527344 150.820312 120.527344 C 150.964844 120.527344 151.121094 120.539062 151.265625 120.558594 C 153.773438 120.8125 155.570312 123.25 155.277344 125.980469 Z M 113.910156 167.710938 C 114.53125 167.359375 115.074219 167.058594 115.53125 166.796875 C 121.753906 163.238281 124.785156 148.84375 125.117188 147.210938 C 125.25 146.519531 124.882812 145.832031 124.230469 145.566406 C 122 144.664062 115.726562 141.339844 116.25 137.988281 C 116.394531 137.054688 116.8125 136.722656 117.105469 136.558594 C 118.472656 135.800781 121.347656 136.519531 122.832031 137.152344 C 122.890625 137.167969 122.949219 137.199219 123.007812 137.207031 C 123.726562 137.414062 127.398438 138.355469 129.417969 136.828125 C 130 136.390625 130.691406 135.566406 130.691406 134.136719 C 130.691406 132.648438 130.136719 130.804688 129.367188 128.78125 L 143.671875 125.875 C 143.730469 127.429688 144.246094 128.925781 145.179688 130.160156 C 146.363281 131.738281 148.050781 132.707031 149.957031 132.914062 C 150.199219 132.941406 150.441406 132.953125 150.683594 132.953125 C 152.324219 132.953125 153.910156 132.359375 155.199219 131.242188 C 156.667969 129.976562 157.589844 128.1875 157.800781 126.214844 C 157.871094 125.621094 157.851562 125.039062 157.792969 124.476562 L 159.628906 123.6875 C 159.726562 124.574219 159.753906 125.429688 159.6875 126.234375 C 159.667969 126.429688 159.6875 126.625 159.746094 126.796875 L 161.074219 131.027344 L 156.996094 133.75 C 156.589844 134.019531 156.347656 134.476562 156.347656 134.964844 C 156.347656 134.992188 156.328125 136.179688 156.007812 137.851562 C 155.316406 138.113281 154.65625 138.375 153.976562 138.5 C 153.246094 138.675781 152.5 138.746094 151.761719 138.726562 C 151.023438 138.707031 150.277344 138.609375 149.539062 138.433594 C 148.820312 138.257812 148.023438 138.003906 147.371094 137.761719 L 147.246094 137.714844 C 146.878906 137.570312 146.449219 137.675781 146.1875 137.996094 C 145.867188 138.394531 145.925781 138.976562 146.324219 139.308594 C 147.140625 139.96875 147.957031 140.386719 148.878906 140.699219 C 149.789062 141 150.761719 141.15625 151.742188 141.144531 C 152.722656 141.136719 153.703125 140.96875 154.609375 140.609375 C 154.871094 140.523438 155.113281 140.40625 155.355469 140.289062 C 154.714844 142.222656 153.644531 144.34375 151.859375 146.003906 C 149.355469 148.339844 145.878906 149.367188 141.515625 149.078125 C 140.847656 149.019531 140.214844 149.457031 140.023438 150.117188 L 136.691406 161.21875 C 136.546875 161.695312 136.660156 162.21875 136.992188 162.597656 C 137.320312 162.976562 137.828125 163.152344 138.324219 163.074219 C 138.371094 163.0625 139.925781 162.839844 142.3125 162.96875 C 142.527344 164.183594 142.925781 167.894531 140.789062 171.492188 C 138.738281 174.960938 134.902344 177.421875 129.40625 178.820312 C 116.191406 182.175781 107.265625 176.167969 104.089844 173.484375 C 107.996094 171.035156 111.578125 169.023438 113.910156 167.710938 Z M 84.292969 192.652344 C 86.359375 186.449219 94.148438 180.09375 101.578125 175.144531 C 103.9375 177.292969 110.996094 182.746094 121.71875 182.746094 C 124.320312 182.746094 127.125 182.425781 130.144531 181.660156 C 136.449219 180.054688 140.886719 177.121094 143.34375 172.941406 C 145.566406 169.148438 145.546875 165.347656 145.324219 163.316406 C 150.34375 164.164062 157.101562 166.757812 162.152344 174.125 C 171.6875 188.035156 184.652344 214.753906 184.789062 215.027344 C 185.136719 215.757812 186.011719 216.058594 186.730469 215.707031 C 187.460938 215.359375 187.761719 214.484375 187.410156 213.765625 C 187.371094 213.6875 186.324219 211.519531 184.613281 208.117188 C 185.0625 207.144531 186.351562 204.296875 188.070312 200.515625 C 190.878906 203.964844 197.382812 210.449219 206.667969 210.449219 C 207.296875 210.449219 207.949219 210.410156 208.601562 210.34375 C 208.289062 210.75 207.996094 211.160156 207.675781 211.578125 C 205.617188 214.316406 203.277344 217.90625 201.007812 221.375 C 197.074219 227.390625 192.617188 234.207031 190.441406 235.304688 C 189.199219 235.925781 184.097656 237.578125 177.777344 239.523438 L 153.734375 212.996094 C 154.558594 207.386719 155.414062 201.363281 156.199219 195.722656 C 156.308594 194.925781 155.753906 194.1875 154.957031 194.082031 C 154.160156 193.972656 153.421875 194.527344 153.316406 195.324219 C 151.695312 206.949219 149.109375 224.671875 147.898438 231.414062 C 143.285156 223.570312 137.378906 213.53125 131.601562 203.675781 C 119.105469 182.347656 102.976562 182.667969 102.285156 182.6875 C 101.480469 182.71875 100.847656 183.390625 100.878906 184.195312 C 100.90625 185.003906 101.558594 185.664062 102.382812 185.605469 C 102.539062 185.605469 117.453125 185.304688 129.085938 205.152344 C 139.847656 223.503906 151.023438 242.488281 153.53125 246.746094 C 152.285156 247.105469 151.160156 247.433594 150.1875 247.707031 C 149.414062 247.929688 148.964844 248.738281 149.1875 249.515625 C 149.375 250.15625 149.957031 250.566406 150.585938 250.566406 C 150.722656 250.566406 150.859375 250.546875 150.996094 250.507812 C 151.402344 250.390625 154.285156 249.554688 158.347656 248.367188 C 156.550781 253.0625 153.65625 264.261719 163.601562 270.820312 C 163.183594 271.035156 162.785156 271.230469 162.445312 271.386719 C 160.84375 272.164062 159.453125 272.921875 158.230469 273.589844 C 157.753906 273.855469 157.308594 274.097656 156.871094 274.332031 C 156.628906 274.386719 156.402344 274.503906 156.230469 274.671875 C 152.625 276.535156 150.5 276.894531 146.179688 273.738281 C 139.992188 269.21875 129.078125 258.71875 126.417969 256.132812 C 129.785156 250.488281 128.347656 242.894531 127.777344 240.523438 L 130.679688 236.644531 C 130.933594 236.304688 131.03125 235.867188 130.933594 235.449219 C 130.835938 235.03125 130.5625 234.683594 130.183594 234.476562 L 125.484375 232 C 125.144531 230.773438 124.6875 229.636719 124.171875 228.566406 C 125.195312 227.800781 127.289062 225.953125 127.894531 223.242188 C 128.339844 221.230469 127.894531 219.1875 126.5625 217.195312 C 123.660156 212.832031 112.550781 207.503906 102.800781 205.785156 C 97.59375 204.871094 90.351562 204.550781 85.378906 208.222656 L 83.667969 209.476562 C 81.589844 211.003906 79.726562 212.355469 78.105469 213.746094 C 79.496094 208.515625 81.84375 199.992188 84.292969 192.652344 Z M 43.429688 321.0625 C 40.234375 318.761719 38.273438 314.949219 37.757812 310.023438 C 36.757812 300.546875 39.941406 299.019531 46.371094 295.949219 C 51.253906 293.605469 50.214844 289.988281 49.207031 286.488281 C 48.507812 284.058594 47.710938 281.300781 48.03125 277.828125 C 48.476562 272.882812 51.683594 271.460938 57.296875 269.382812 C 59.867188 268.429688 62.78125 267.351562 65.421875 265.582031 C 73.628906 260.101562 73.84375 257.464844 73.007812 238.480469 C 72.257812 221.441406 76.105469 218.625 85.398438 211.828125 L 87.117188 210.566406 C 91.265625 207.503906 97.664062 207.835938 102.304688 208.652344 C 112.734375 210.488281 122.203125 215.894531 124.144531 218.808594 C 125.027344 220.128906 125.328125 221.375 125.058594 222.589844 C 124.71875 224.175781 123.492188 225.371094 122.738281 225.992188 C 119.84375 221.511719 116.144531 218.894531 115.917969 218.742188 C 115.550781 218.488281 115.09375 218.410156 114.667969 218.546875 C 114.238281 218.671875 113.898438 218.992188 113.734375 219.402344 C 107.976562 233.816406 93.808594 241.835938 91.058594 243.285156 C 89.738281 242.972656 86.660156 242.507812 84.707031 244.207031 C 83.398438 245.34375 82.933594 247.113281 83.320312 249.457031 C 84.136719 254.421875 88.429688 256.347656 91.875 256.882812 C 91 258.351562 89.710938 260.527344 88.164062 263.152344 C 82.765625 272.386719 72.988281 289.53125 68.257812 300.585938 C 66.082031 305.648438 63.257812 310.859375 60.265625 316.371094 C 59.074219 318.554688 57.878906 320.773438 56.710938 322.988281 C 51.332031 324.105469 46.738281 323.457031 43.429688 321.0625 Z M 132.730469 372.910156 C 127.425781 369.65625 119.152344 356.320312 112.421875 344.226562 C 112.367188 344.070312 112.289062 343.925781 112.179688 343.800781 C 106.101562 332.855469 101.332031 323.039062 101.238281 322.832031 C 100.992188 322.328125 100.488281 322.007812 99.925781 322.007812 L 94.070312 322.007812 C 93.265625 322.007812 92.613281 322.660156 92.613281 323.464844 C 92.613281 324.273438 93.265625 324.921875 94.070312 324.921875 L 99.011719 324.921875 C 100.292969 327.527344 104.296875 335.597656 109.277344 344.578125 L 97.1875 358.925781 C 96.828125 359.351562 96.742188 359.953125 96.972656 360.46875 L 104.683594 377.351562 L 30.523438 377.351562 L 43.5625 360.664062 C 47.234375 355.96875 49.789062 350.515625 50.964844 344.878906 C 52.75 336.316406 57.867188 326.886719 62.820312 317.777344 C 65.714844 312.453125 68.707031 306.941406 70.929688 301.75 C 75.308594 291.542969 84.085938 275.972656 89.59375 266.496094 L 104.625 269.703125 C 104.035156 271.074219 103.507812 272.308594 103.082031 273.367188 C 102.238281 275.476562 102.246094 277.285156 103.101562 278.742188 C 104.355469 280.882812 106.878906 281.261719 107.226562 281.300781 C 118.976562 282.300781 123.757812 293.175781 128.378906 303.703125 L 128.992188 305.09375 C 133.699219 315.777344 146.683594 349.796875 146.820312 350.136719 C 147.082031 350.808594 147.789062 351.195312 148.5 351.039062 C 149.402344 350.835938 165.980469 347.164062 175.164062 344.984375 C 175.28125 345.171875 175.425781 345.335938 175.621094 345.453125 C 175.691406 345.5 182.59375 350.011719 180.292969 359.742188 C 150.78125 377.789062 141.683594 378.402344 132.730469 372.910156 Z M 273.933594 369.675781 C 273.933594 373.570312 270.769531 376.742188 266.875 376.742188 L 161.125 376.742188 C 160.445312 376.742188 159.804688 376.46875 159.335938 375.964844 C 159.035156 375.644531 158.839844 375.253906 158.746094 374.835938 C 163.308594 372.84375 168.542969 370.09375 174.699219 366.496094 C 174.875 366.5625 175.058594 366.601562 175.253906 366.601562 L 273.925781 366.601562 L 273.925781 369.675781 Z M 346.058594 357.542969 C 346.058594 363.074219 341.5625 367.574219 336.035156 367.574219 L 276.855469 367.574219 L 276.855469 365.320312 L 280.277344 351.285156 L 326.617188 351.285156 C 333.160156 351.285156 338.480469 345.957031 338.480469 339.40625 L 338.480469 23.007812 C 338.480469 16.457031 333.160156 11.128906 326.617188 11.128906 L 167.601562 11.128906 C 161.054688 11.128906 155.734375 16.457031 155.734375 23.007812 L 155.734375 78.324219 C 153.441406 78.460938 151.394531 79.152344 149.375 79.839844 C 148.964844 79.976562 148.558594 80.113281 148.160156 80.25 L 148.160156 12.945312 C 148.160156 7.417969 152.65625 2.917969 158.179688 2.917969 L 336.035156 2.917969 C 341.5625 2.917969 346.058594 7.417969 346.058594 12.945312 Z M 304.863281 104.617188 L 304.863281 91.960938 C 304.863281 91.574219 304.707031 91.203125 304.4375 90.929688 C 304.164062 90.660156 303.746094 90.53125 303.398438 90.503906 C 284.121094 90.660156 254.949219 90.796875 252.242188 90.5625 C 251.734375 90.40625 251.171875 90.542969 250.792969 90.929688 C 250.503906 91.222656 250.347656 91.632812 250.367188 92.039062 L 250.367188 144.429688 C 250.367188 145.238281 251.015625 145.890625 251.824219 145.890625 L 303.417969 145.890625 C 304.222656 145.890625 304.875 145.238281 304.875 144.429688 L 304.875 130.667969 C 311.039062 129.511719 315.691406 124.039062 315.691406 117.640625 C 315.679688 111.257812 311.03125 105.773438 304.863281 104.617188 Z M 303.289062 127.945312 C 302.53125 128.003906 301.949219 128.636719 301.949219 129.402344 L 301.949219 142.984375 L 253.269531 142.984375 L 253.269531 93.527344 C 254.621094 93.574219 256.699219 93.585938 259.941406 93.59375 C 264.234375 93.613281 270.195312 93.605469 277.683594 93.574219 C 287.957031 93.535156 298.222656 93.457031 301.949219 93.429688 L 301.949219 105.890625 C 301.949219 106.648438 302.53125 107.28125 303.289062 107.347656 C 308.601562 107.785156 312.769531 112.304688 312.769531 117.640625 C 312.769531 122.988281 308.601562 127.507812 303.289062 127.945312 Z M 260.621094 65.472656 L 260.621094 78.128906 C 260.621094 78.519531 260.777344 78.886719 261.046875 79.160156 C 261.320312 79.433594 261.660156 79.558594 262.085938 79.589844 C 281.363281 79.433594 310.535156 79.296875 313.242188 79.53125 C 313.378906 79.570312 313.527344 79.589844 313.660156 79.589844 C 314.039062 79.589844 314.410156 79.441406 314.691406 79.160156 C 314.980469 78.867188 315.136719 78.460938 315.117188 78.050781 L 315.117188 25.660156 C 315.117188 24.855469 314.46875 24.203125 313.660156 24.203125 L 262.066406 24.203125 C 261.261719 24.203125 260.609375 24.855469 260.609375 25.660156 L 260.609375 39.425781 C 254.445312 40.582031 249.792969 46.054688 249.792969 52.449219 C 249.804688 58.84375 254.464844 64.316406 260.621094 65.472656 Z M 262.203125 42.15625 C 262.960938 42.097656 263.542969 41.464844 263.542969 40.699219 L 263.542969 27.117188 L 312.222656 27.117188 L 312.222656 76.574219 C 310.875 76.527344 308.796875 76.515625 305.554688 76.507812 C 301.261719 76.488281 295.296875 76.496094 287.8125 76.527344 C 277.539062 76.566406 267.273438 76.644531 263.542969 76.671875 L 263.542969 64.203125 C 263.542969 63.441406 262.960938 62.8125 262.203125 62.742188 C 256.890625 62.304688 252.726562 57.785156 252.726562 52.449219 C 252.714844 47.113281 256.882812 42.59375 262.203125 42.15625 Z M 233.789062 24.707031 L 178.039062 24.707031 C 177.234375 24.707031 176.582031 25.359375 176.582031 26.167969 L 176.582031 81.6875 C 176.582031 82.496094 177.234375 83.144531 178.039062 83.144531 L 191.90625 83.144531 C 192.710938 83.144531 193.363281 82.496094 193.363281 81.6875 L 193.363281 78.90625 C 193.363281 72.667969 198.433594 67.59375 204.667969 67.59375 C 210.902344 67.59375 215.96875 72.667969 215.96875 78.90625 L 215.96875 81.6875 C 215.96875 82.496094 216.621094 83.144531 217.425781 83.144531 L 233.789062 83.144531 C 234.597656 83.144531 235.246094 82.496094 235.246094 81.6875 L 235.246094 64.621094 C 235.246094 63.8125 234.597656 63.160156 233.789062 63.160156 L 233.101562 63.160156 C 226.867188 63.160156 221.796875 58.085938 221.796875 51.847656 C 221.796875 45.605469 226.867188 40.53125 233.101562 40.53125 L 233.789062 40.53125 C 234.597656 40.53125 235.246094 39.882812 235.246094 39.074219 L 235.246094 26.167969 C 235.246094 25.359375 234.597656 24.707031 233.789062 24.707031 Z M 232.332031 37.636719 C 224.847656 38.035156 218.882812 44.253906 218.882812 51.847656 C 218.882812 59.4375 224.847656 65.660156 232.332031 66.058594 L 232.332031 80.238281 L 218.882812 80.238281 L 218.882812 78.917969 C 218.882812 71.074219 212.503906 64.6875 204.667969 64.6875 C 196.832031 64.6875 190.449219 71.074219 190.449219 78.917969 L 190.449219 80.238281 L 179.496094 80.238281 L 179.496094 27.625 L 232.332031 27.625 Z M 153.121094 125.117188 C 153.375 126.796875 152.664062 128.296875 151.527344 128.46875 C 150.394531 128.644531 149.265625 127.421875 149.015625 125.75 C 148.761719 124.066406 149.46875 122.570312 150.605469 122.394531 C 151.734375 122.21875 152.871094 123.445312 153.121094 125.117188 Z M 153.238281 114.910156 C 153.570312 115.191406 153.605469 115.699219 153.324219 116.027344 C 153.152344 116.222656 152.90625 116.320312 152.664062 116.300781 L 152.558594 116.292969 C 151.867188 116.234375 151.277344 116.097656 150.695312 116.097656 C 150.121094 116.039062 149.578125 116.097656 149.023438 116.183594 C 148.46875 116.28125 147.925781 116.464844 147.371094 116.730469 C 146.828125 116.980469 146.246094 117.339844 145.710938 117.679688 L 145.625 117.738281 C 145.351562 117.914062 144.992188 117.828125 144.820312 117.554688 C 144.710938 117.390625 144.703125 117.183594 144.769531 117.019531 C 145.101562 116.222656 145.597656 115.601562 146.226562 115.046875 C 146.847656 114.503906 147.625 114.085938 148.46875 113.851562 C 149.304688 113.617188 150.21875 113.578125 151.054688 113.792969 C 151.878906 113.976562 152.625 114.386719 153.238281 114.910156 Z M 120.792969 238.101562 C 121 239.785156 120.242188 241.273438 119.105469 241.40625 C 117.96875 241.542969 116.871094 240.289062 116.667969 238.609375 C 116.464844 236.925781 117.222656 235.441406 118.355469 235.304688 C 119.492188 235.167969 120.589844 236.421875 120.792969 238.101562 Z M 111.839844 233.5625 C 111.742188 233.398438 111.734375 233.195312 111.8125 233.03125 C 112.171875 232.242188 112.675781 231.640625 113.328125 231.09375 C 113.96875 230.558594 114.753906 230.171875 115.597656 229.96875 C 116.445312 229.753906 117.355469 229.753906 118.183594 229.976562 C 119.015625 230.179688 119.753906 230.609375 120.347656 231.152344 C 120.667969 231.445312 120.699219 231.949219 120.394531 232.28125 C 120.222656 232.476562 119.96875 232.5625 119.726562 232.535156 L 119.621094 232.523438 C 118.929688 232.445312 118.335938 232.289062 117.765625 232.269531 C 117.191406 232.195312 116.648438 232.242188 116.09375 232.308594 C 115.539062 232.398438 114.988281 232.5625 114.425781 232.804688 C 113.871094 233.050781 113.289062 233.390625 112.742188 233.710938 L 112.65625 233.769531 C 112.367188 233.933594 112.007812 233.847656 111.839844 233.5625 Z M 111.839844 233.5625 " fill-opacity="1" fill-rule="nonzero"/></svg>