<svg width="12" height="12" viewBox="0 0 12 12" fill="none" xmlns="http://www.w3.org/2000/svg">
<path opacity="0.4" d="M6.012 0C2.526 0 0 2.84827 0 6.00901C0 7.01853 0.294 8.05809 0.81 9.00751C0.906 9.16375 0.918 9.36204 0.852 9.54832L0.45 10.8943C0.36 11.2188 0.636 11.4592 0.942 11.363L2.154 11.0025C2.484 10.8943 2.742 11.0325 3.0486 11.2188C3.9246 11.7356 5.016 12 6 12C8.976 12 12 9.69855 12 5.99099C12 2.79419 9.42 0 6.012 0Z" fill="#200E32"/>
<path fill-rule="evenodd" clip-rule="evenodd" d="M5.98834 6.78423C5.56234 6.77822 5.22034 6.43571 5.22034 6.00907C5.22034 5.58844 5.56834 5.23992 5.98834 5.24593C6.41434 5.24593 6.75634 5.58844 6.75634 6.01508C6.75634 6.43571 6.41434 6.78423 5.98834 6.78423ZM3.2221 6.78429C2.8021 6.78429 2.4541 6.43576 2.4541 6.01513C2.4541 5.58849 2.7961 5.24598 3.2221 5.24598C3.6481 5.24598 3.9901 5.58849 3.9901 6.01513C3.9901 6.43576 3.6481 6.77828 3.2221 6.78429ZM7.98608 6.01511C7.98608 6.43574 8.32808 6.78426 8.75408 6.78426C9.18008 6.78426 9.52208 6.43574 9.52208 6.01511C9.52208 5.58847 9.18008 5.24596 8.75408 5.24596C8.32808 5.24596 7.98608 5.58847 7.98608 6.01511Z" fill="#200E32"/>
</svg>
