<svg width="600" height="600" viewBox="0 0 600 600" fill="none" xmlns="http://www.w3.org/2000/svg">
<path d="M39.3833 425.556C14.6055 399.389 41.1111 329.383 81.0778 286.572C129.678 234.522 196.678 190.739 326.183 205.628C433.122 217.928 499.517 271.861 522.1 299.644C558.011 343.8 583.956 406.1 562.328 431.867C526.033 475.117 376.078 401.528 294.739 400.028C213.4 398.528 94.7111 483.889 39.3833 425.556Z" fill="#E8DDFF"/>
<path d="M423.672 383.75H141.394L82.0222 189.656C81.4542 187.802 81.3294 185.841 81.6579 183.93C81.9864 182.019 82.759 180.212 83.9135 178.654C85.0679 177.097 86.572 175.832 88.3046 174.962C90.0373 174.091 91.95 173.64 93.8889 173.644H350.233C352.887 173.644 355.471 174.495 357.604 176.074C359.737 177.652 361.307 179.873 362.083 182.411L423.672 383.75Z" fill="#A77CFB"/>
<path d="M377.444 360.644H174.933C172.256 360.644 169.649 359.785 167.495 358.193C165.342 356.601 163.757 354.36 162.972 351.8L118.011 204.811C117.725 203.878 117.662 202.892 117.827 201.93C117.992 200.968 118.38 200.059 118.96 199.275C119.541 198.491 120.297 197.854 121.168 197.415C122.04 196.977 123.002 196.749 123.978 196.75H326.489C329.167 196.75 331.774 197.609 333.927 199.201C336.08 200.793 337.665 203.034 338.45 205.594L383.411 352.583C383.697 353.516 383.76 354.503 383.595 355.464C383.431 356.426 383.042 357.335 382.462 358.12C381.882 358.904 381.125 359.541 380.254 359.979C379.382 360.418 378.42 360.646 377.444 360.644Z" fill="#E8DDFF"/>
<path d="M141.394 383.75H520.556C523.113 383.75 525.566 384.766 527.375 386.575C529.184 388.383 530.2 390.837 530.2 393.394V406.278C530.2 408.836 529.184 411.289 527.375 413.097C525.566 414.906 523.113 415.922 520.556 415.922H151.039C149.772 415.922 148.518 415.673 147.348 415.188C146.178 414.703 145.115 413.993 144.219 413.097C143.324 412.202 142.613 411.139 142.129 409.969C141.644 408.798 141.394 407.544 141.394 406.278V383.75Z" fill="#A77CFB"/>
<path d="M187.606 285.778L210.667 260.039" stroke="#585858" stroke-width="18" stroke-miterlimit="10" stroke-linecap="round"/>
<path d="M216.111 285.778L181.383 260.039" stroke="#585858" stroke-width="18" stroke-miterlimit="10" stroke-linecap="round"/>
<path d="M301.483 285.778L324.545 260.039" stroke="#585858" stroke-width="18" stroke-miterlimit="10" stroke-linecap="round"/>
<path d="M329.989 285.778L295.256 260.039" stroke="#585858" stroke-width="18" stroke-miterlimit="10" stroke-linecap="round"/>
<path d="M244.483 302.044C244.483 302.044 262.561 292.078 280.922 302.044" stroke="#585858" stroke-width="18" stroke-miterlimit="10" stroke-linecap="round"/>
<path d="M441.911 271.667C439.821 271.661 437.796 270.942 436.17 269.629C434.545 268.316 433.416 266.486 432.972 264.444C431.272 256.783 430.194 250.933 431.694 245.461C433.494 238.972 438.244 235.172 443.361 231.539C446.811 229.094 449.206 225.383 449.472 222.094C449.639 219.911 448.872 218.072 447.056 216.317C441.689 211.111 433 219.211 432.611 219.561C432.611 219.561 425.311 225.739 419.889 219.261C414.467 212.783 419.889 206.361 419.889 206.361C423.387 203.114 427.411 200.484 431.789 198.583C442.228 194.139 452.172 195.806 459.794 203.167C465.494 208.689 468.311 215.917 467.728 223.517C467.056 232.283 461.906 240.889 453.944 246.522C450.206 249.172 449.5 250.111 449.328 250.411C448.9 251.767 450.311 258.117 450.844 260.511C451.139 261.85 451.13 263.237 450.818 264.571C450.507 265.906 449.9 267.154 449.044 268.224C448.187 269.293 447.102 270.158 445.868 270.754C444.633 271.349 443.282 271.661 441.911 271.667Z" fill="#585858"/>
<path d="M446.328 303.456C452.197 303.456 456.956 298.697 456.956 292.828C456.956 286.958 452.197 282.2 446.328 282.2C440.458 282.2 435.7 286.958 435.7 292.828C435.7 298.697 440.458 303.456 446.328 303.456Z" fill="#585858"/>
</svg>
