<svg width="13" height="12" viewBox="0 0 13 12" fill="none" xmlns="http://www.w3.org/2000/svg">
<path opacity="0.4" d="M6.09636 11.7734C4.66946 10.8921 3.34302 9.85284 2.14131 8.67475C1.29295 7.8336 0.645044 6.80654 0.247108 5.67204C-0.463912 3.45952 0.36376 0.930925 2.67458 0.180248C3.89427 -0.202793 5.22079 0.0323465 6.24079 0.812397C7.26116 0.0332189 8.58724 -0.201844 9.807 0.180248C12.1178 0.930925 12.951 3.45952 12.24 5.67204C11.8453 6.80547 11.2013 7.83244 10.3569 8.67475C9.15412 9.85155 7.82783 10.8907 6.40188 11.7734L6.24634 11.875L6.09636 11.7734Z" fill="#200E32"/>
<path d="M6.25682 11.8751L6.10999 11.7736C4.68133 10.8923 3.35304 9.85308 2.14939 8.6749C1.297 7.83492 0.64524 6.80776 0.244074 5.67219C-0.461391 3.45967 0.366281 0.931074 2.6771 0.180397C3.89679 -0.202644 5.2408 0.0326759 6.25682 0.819257V11.8751Z" fill="#200E32"/>
<path d="M10.1304 4.37452C10.0048 4.36643 9.88789 4.30369 9.80699 4.20098C9.72609 4.09827 9.68832 3.96463 9.70253 3.83135C9.71611 3.39238 9.46634 2.99282 9.08116 2.83736C8.83691 2.77068 8.689 2.50617 8.7501 2.2453C8.80807 1.98864 9.04842 1.82904 9.28998 1.88681C9.32048 1.89187 9.34984 1.90292 9.37656 1.9194C10.1489 2.21661 10.6489 3.0165 10.6091 3.8911C10.6079 4.02366 10.5562 4.14999 10.4659 4.24113C10.3756 4.33227 10.2545 4.38041 10.1304 4.37452Z" fill="#200E32"/>
</svg>
