<svg width="131" height="131" viewBox="0 0 131 131" fill="none" xmlns="http://www.w3.org/2000/svg">
<path d="M0 65.364C0 29.2645 29.2645 0 65.364 0C101.464 0 130.728 29.2645 130.728 65.364V130.728H65.364C29.2645 130.728 0 101.464 0 65.364Z" fill="#EBE0FF"/>
<path d="M68.8012 73.969C67.2812 73.969 65.9512 73.646 64.8112 73C63.7092 72.392 63.1582 71.309 63.1582 69.751C63.1582 68.763 63.4052 67.661 63.8992 66.445C64.5832 67.205 65.2102 67.737 65.7802 68.041C66.3882 68.345 67.0342 68.497 67.7182 68.497C69.6182 68.497 71.0242 67.433 71.9362 65.305C72.8862 63.177 73.3612 60.821 73.3612 58.237C73.3612 53.411 71.5562 50.998 67.9462 50.998C66.9202 50.998 66.0462 51.055 65.3242 51.169L60.6502 73H52.4422L60.1942 36.748L68.6302 35.608L65.9512 48.262H66.2932C67.7372 48.262 69.0862 47.806 70.3402 46.894C71.5942 45.944 72.6012 44.766 73.3612 43.36C74.1212 41.916 74.5012 40.472 74.5012 39.028C74.5012 37.28 73.8742 35.817 72.6202 34.639C71.4042 33.461 69.5232 32.872 66.9772 32.872C64.6592 32.872 62.3982 33.404 60.1942 34.468C57.9902 35.494 56.1852 37.052 54.7792 39.142C53.4112 41.232 52.7272 43.759 52.7272 46.723C52.7272 48.129 52.8602 49.117 53.1262 49.687C53.3922 50.219 53.5252 50.523 53.5252 50.599C51.5112 50.599 49.9912 50.2 48.9652 49.402C47.9392 48.566 47.4262 47.217 47.4262 45.355C47.4262 42.771 48.3952 40.32 50.3332 38.002C52.2712 35.684 54.8362 33.822 58.0282 32.416C61.2202 30.972 64.5832 30.25 68.1172 30.25C70.7772 30.25 73.0192 30.668 74.8432 31.504C76.6672 32.34 78.0162 33.442 78.8902 34.81C79.8022 36.178 80.2582 37.679 80.2582 39.313C80.2582 41.061 79.7642 42.752 78.7762 44.386C77.7882 46.02 76.3822 47.35 74.5582 48.376C76.8382 48.794 78.5292 49.858 79.6312 51.568C80.7332 53.24 81.2842 55.235 81.2842 57.553C81.2842 59.719 80.8662 62.075 80.0302 64.621C79.2322 67.167 77.8832 69.371 75.9832 71.233C74.1212 73.057 71.7272 73.969 68.8012 73.969Z" fill="#864AFC"/>
<path d="M47.9144 100.374C47.3277 100.374 46.8144 100.249 46.3744 100C45.9491 99.7653 45.7364 99.3473 45.7364 98.746C45.7364 98.3647 45.8317 97.9393 46.0224 97.47C46.2864 97.7633 46.5284 97.9687 46.7484 98.086C46.9831 98.2033 47.2324 98.262 47.4964 98.262C48.2297 98.262 48.7724 97.8513 49.1244 97.03C49.4911 96.2087 49.6744 95.2993 49.6744 94.302C49.6744 92.4393 48.9777 91.508 47.5844 91.508C47.1884 91.508 46.8511 91.53 46.5724 91.574L44.7684 100H41.6004L44.5924 86.008L47.8484 85.568L46.8144 90.452H46.9464C47.5037 90.452 48.0244 90.276 48.5084 89.924C48.9924 89.5573 49.3811 89.1027 49.6744 88.56C49.9677 88.0027 50.1144 87.4453 50.1144 86.888C50.1144 86.2133 49.8724 85.6487 49.3884 85.194C48.9191 84.7393 48.1931 84.512 47.2104 84.512C46.3157 84.512 45.4431 84.7173 44.5924 85.128C43.7417 85.524 43.0451 86.1253 42.5024 86.932C41.9744 87.7387 41.7104 88.714 41.7104 89.858C41.7104 90.4007 41.7617 90.782 41.8644 91.002C41.9671 91.2073 42.0184 91.3247 42.0184 91.354C41.2411 91.354 40.6544 91.2 40.2584 90.892C39.8624 90.5693 39.6644 90.0487 39.6644 89.33C39.6644 88.3327 40.0384 87.3867 40.7864 86.492C41.5344 85.5973 42.5244 84.8787 43.7564 84.336C44.9884 83.7787 46.2864 83.5 47.6504 83.5C48.6771 83.5 49.5424 83.6613 50.2464 83.984C50.9504 84.3067 51.4711 84.732 51.8084 85.26C52.1604 85.788 52.3364 86.3673 52.3364 86.998C52.3364 87.6727 52.1457 88.3253 51.7644 88.956C51.3831 89.5867 50.8404 90.1 50.1364 90.496C51.0164 90.6573 51.6691 91.068 52.0944 91.728C52.5197 92.3733 52.7324 93.1433 52.7324 94.038C52.7324 94.874 52.5711 95.7833 52.2484 96.766C51.9404 97.7487 51.4197 98.5993 50.6864 99.318C49.9677 100.022 49.0437 100.374 47.9144 100.374ZM55.3721 100.132C54.6681 100.132 54.0961 99.912 53.6561 99.472C53.2308 99.032 53.0181 98.372 53.0181 97.492C53.0181 97.1253 53.0768 96.6487 53.1941 96.062L55.5481 85.04L58.8041 84.6L56.2741 96.48C56.2155 96.7 56.1861 96.9347 56.1861 97.184C56.1861 97.4773 56.2521 97.69 56.3841 97.822C56.5308 97.9393 56.7655 97.998 57.0881 97.998C57.5135 97.998 57.9095 97.822 58.2761 97.47C58.6428 97.1033 58.9068 96.634 59.0681 96.062H59.9921C59.4495 97.646 58.7528 98.724 57.9021 99.296C57.0515 99.8533 56.2081 100.132 55.3721 100.132ZM61.9714 100.088C60.886 100.088 60.028 99.8093 59.3974 99.252C58.7667 98.6947 58.4514 97.8147 58.4514 96.612C58.4514 95.6147 58.6567 94.5073 59.0674 93.29C59.478 92.0727 60.138 91.024 61.0474 90.144C61.9567 89.2493 63.1007 88.802 64.4794 88.802C66.3567 88.802 67.2954 89.9753 67.2954 92.322V92.344C67.3394 92.3587 67.42 92.366 67.5374 92.366C68.0214 92.366 68.5787 92.2413 69.2094 91.992C69.84 91.728 70.412 91.4127 70.9254 91.046L71.1234 91.64C70.698 92.0947 70.1407 92.4833 69.4514 92.806C68.7767 93.114 68.036 93.334 67.2294 93.466C67.112 94.8007 66.8114 95.9667 66.3274 96.964C65.8434 97.9613 65.22 98.7313 64.4574 99.274C63.6947 99.8167 62.866 100.088 61.9714 100.088ZM62.8514 98.108C63.2034 98.108 63.5554 97.91 63.9074 97.514C64.2594 97.1033 64.5674 96.5533 64.8314 95.864C65.0954 95.16 65.286 94.3827 65.4034 93.532C65.0074 93.444 64.8094 93.136 64.8094 92.608C64.8094 92.0067 65.0367 91.6107 65.4914 91.42C65.462 90.936 65.3887 90.606 65.2714 90.43C65.154 90.2393 64.9487 90.144 64.6554 90.144C64.1714 90.144 63.702 90.496 63.2474 91.2C62.7927 91.904 62.426 92.7473 62.1474 93.73C61.8687 94.7127 61.7294 95.578 61.7294 96.326C61.7294 97.03 61.81 97.5067 61.9714 97.756C62.1327 97.9907 62.426 98.108 62.8514 98.108ZM72.0213 105.5C71.3173 105.5 70.7307 105.317 70.2613 104.95C69.792 104.583 69.5573 104.055 69.5573 103.366C69.5573 102.53 69.8947 101.855 70.5693 101.342C71.244 100.843 72.102 100.425 73.1433 100.088L73.4073 98.922C72.6593 99.7287 71.7793 100.132 70.7673 100.132C69.9313 100.132 69.2347 99.846 68.6773 99.274C68.12 98.702 67.8413 97.8073 67.8413 96.59C67.8413 95.5047 68.054 94.368 68.4793 93.18C68.9193 91.9773 69.5647 90.9653 70.4153 90.144C71.2807 89.308 72.3073 88.89 73.4953 88.89C74.0967 88.89 74.544 88.9927 74.8373 89.198C75.1307 89.4033 75.2773 89.6747 75.2773 90.012V90.144L75.5193 89H78.6873L76.5093 99.208C77.2133 98.9733 77.778 98.6213 78.2033 98.152C78.6287 97.6827 78.988 96.986 79.2813 96.062H80.2053C79.8093 97.3673 79.274 98.328 78.5993 98.944C77.9247 99.5453 77.162 99.956 76.3113 100.176L75.9813 101.76C75.688 103.183 75.182 104.158 74.4633 104.686C73.7447 105.229 72.9307 105.5 72.0213 105.5ZM72.1973 97.998C72.5347 97.998 72.8793 97.844 73.2313 97.536C73.5833 97.228 73.8253 96.81 73.9573 96.282L75.0793 91.068C75.0793 90.892 75.006 90.716 74.8593 90.54C74.7127 90.3493 74.4853 90.254 74.1773 90.254C73.5907 90.254 73.0627 90.5987 72.5933 91.288C72.124 91.9627 71.7573 92.784 71.4933 93.752C71.2293 94.7053 71.0973 95.5487 71.0973 96.282C71.0973 97.0153 71.2 97.4847 71.4053 97.69C71.6253 97.8953 71.8893 97.998 72.1973 97.998ZM71.5153 103.784C71.7647 103.784 72.0067 103.615 72.2413 103.278C72.476 102.941 72.6593 102.457 72.7913 101.826L72.9233 101.188C71.486 101.716 70.7673 102.339 70.7673 103.058C70.7673 103.249 70.8333 103.417 70.9653 103.564C71.0973 103.711 71.2807 103.784 71.5153 103.784ZM82.6517 87.812C82.1677 87.812 81.7571 87.6433 81.4197 87.306C81.0824 86.9687 80.9137 86.558 80.9137 86.074C80.9137 85.59 81.0824 85.1793 81.4197 84.842C81.7571 84.49 82.1677 84.314 82.6517 84.314C83.1357 84.314 83.5464 84.49 83.8837 84.842C84.2357 85.1793 84.4117 85.59 84.4117 86.074C84.4117 86.558 84.2357 86.9687 83.8837 87.306C83.5464 87.6433 83.1357 87.812 82.6517 87.812ZM81.1557 100.132C80.4517 100.132 79.8797 99.912 79.4397 99.472C79.0144 99.032 78.8017 98.372 78.8017 97.492C78.8017 97.1253 78.8604 96.6487 78.9777 96.062L80.4737 89H83.6417L82.0577 96.48C81.9991 96.7 81.9697 96.9347 81.9697 97.184C81.9697 97.4773 82.0357 97.69 82.1677 97.822C82.3144 97.9393 82.5491 97.998 82.8717 97.998C83.2971 97.998 83.6931 97.822 84.0597 97.47C84.4264 97.1033 84.6904 96.634 84.8517 96.062H85.7757C85.2331 97.646 84.5364 98.724 83.6857 99.296C82.8351 99.8533 81.9917 100.132 81.1557 100.132ZM87.645 100.132C86.5743 100.132 85.7383 99.8533 85.137 99.296C84.5356 98.724 84.235 97.8367 84.235 96.634C84.235 95.622 84.433 94.5073 84.829 93.29C85.225 92.0727 85.8703 91.024 86.765 90.144C87.6596 89.2493 88.7963 88.802 90.175 88.802C91.7883 88.802 92.595 89.506 92.595 90.914C92.595 91.7353 92.3603 92.4907 91.891 93.18C91.4216 93.8693 90.7983 94.4267 90.021 94.852C89.2436 95.2627 88.415 95.4973 87.535 95.556C87.5056 95.8787 87.491 96.0987 87.491 96.216C87.491 97.4333 87.9456 98.042 88.855 98.042C89.2656 98.042 89.7056 97.932 90.175 97.712C90.6443 97.492 91.0696 97.2133 91.451 96.876C91.055 99.0467 89.7863 100.132 87.645 100.132ZM87.689 94.5C88.2463 94.4853 88.767 94.302 89.251 93.95C89.7496 93.598 90.1456 93.1507 90.439 92.608C90.747 92.0507 90.901 91.4713 90.901 90.87C90.901 90.2687 90.7176 89.968 90.351 89.968C89.8376 89.968 89.3243 90.4373 88.811 91.376C88.3123 92.3 87.9383 93.3413 87.689 94.5Z" fill="#864AFC"/>
</svg>
