<svg width="600" height="600" viewBox="0 0 600 600" fill="none" xmlns="http://www.w3.org/2000/svg">
<path d="M298.8 370C251.1 370 212.4 380.1 212.4 392.4C212.4 404.8 251.1 414.9 298.8 414.9C341.3 414.9 376.7 406.9 383.9 396.4C384.8 395.1 385.2 393.8 385.2 392.5C385.2 380.1 346.5 370 298.8 370ZM298.8 395.6C271.3 395.6 249.1 392.3 249.1 388.2C249.1 388.2 249.1 388.1 249.1 387.9C249.1 387.8 249.1 387.8 249.2 387.7C249.2 387.7 249.2 387.6 249.3 387.6C251.2 383.8 272.7 380.8 298.8 380.8C324 380.8 344.8 383.6 348 387.2C348.3 387.5 348.4 387.8 348.4 388.1V388.2C348.5 392.3 326.2 395.6 298.8 395.6Z" fill="#585858"/>
<path d="M195.2 377.1H112C109.9 377.1 107.8 377.8 106.1 379.1L74.1001 404.2C72.6001 405.4 73.4001 407.8 75.3001 407.8H163.2C165.4 407.8 167.6 406.9 169.2 405.4L196.1 379.4C197 378.6 196.4 377.1 195.2 377.1Z" fill="#585858"/>
<path d="M525.3 377.1H442C439.9 377.1 437.8 377.8 436.1 379.1L404.1 404.2C402.6 405.4 403.4 407.8 405.3 407.8H493.2C495.4 407.8 497.6 406.9 499.2 405.4L526.1 379.4C527.1 378.6 526.5 377.1 525.3 377.1Z" fill="#585858"/>
<path d="M298.8 365.9C251.1 365.9 212.4 376 212.4 388.3C212.4 400.7 251.1 410.8 298.8 410.8C341.3 410.8 376.7 402.8 383.9 392.3C384.8 391 385.2 389.7 385.2 388.4C385.2 376 346.5 365.9 298.8 365.9ZM298.8 391.5C271.3 391.5 249.1 388.2 249.1 384.1C249.1 384.1 249.1 384 249.1 383.8C249.1 383.7 249.1 383.7 249.2 383.6C249.2 383.6 249.2 383.5 249.3 383.5C251.2 379.7 272.7 376.7 298.8 376.7C324 376.7 344.8 379.5 348 383.1C348.3 383.4 348.4 383.7 348.4 384V384.1C348.5 388.2 326.2 391.5 298.8 391.5Z" fill="#A77CFB"/>
<path d="M383.9 392.3C376.7 402.8 341.4 410.8 298.8 410.8C251.1 410.8 212.4 400.7 212.4 388.3C212.4 388.3 227.4 406.4 295.8 406.4C354.6 406.5 378.3 395.4 383.9 392.3Z" fill="#E8DDFF"/>
<path d="M348 383.1C344.7 379.5 323.9 376.7 298.8 376.7C272.6 376.7 251.2 379.7 249.3 383.5C250.2 381.3 256.2 373.7 298.8 373.7C338 373.7 346.3 380.5 348 383.1Z" fill="#E8DDFF"/>
<path d="M195.9 377.1L178.4 251.9C178.2 250.6 177.1 249.6 175.7 249.6H152.1C150.5 249.6 149.2 251 149.4 252.7L155.3 300C155.5 301.9 154.1 303.5 152.2 303.5H125.2C123.5 303.5 122.1 302.2 122 300.5L119.8 252.3C119.7 250.8 118.5 249.7 117.1 249.7H95C93.4 249.7 92.2 251 92.3 252.5L95.3 334.9C95.4 337.5 97.6 339.6 100.2 339.6H160.3L165 377.3H195.9V377.1Z" fill="#A77CFB"/>
<path d="M526 377.1L508.5 251.9C508.3 250.6 507.2 249.6 505.8 249.6H482.2C480.6 249.6 479.3 251 479.5 252.7L485.4 300C485.6 301.9 484.2 303.5 482.3 303.5H455.3C453.6 303.5 452.2 302.2 452.1 300.5L449.9 252.3C449.8 250.8 448.6 249.7 447.2 249.7H425.2C423.6 249.7 422.4 251 422.5 252.5L425.5 334.9C425.6 337.5 427.8 339.6 430.4 339.6H490.5L495.2 377.3H526V377.1Z" fill="#A77CFB"/>
<path d="M177.7 253.2L164.5 402.8C164.3 405.6 161.9 407.8 159.1 407.8H139.3C136 407.8 133.5 404.9 133.9 401.7L142.2 331.6L82.9001 332.6C79.6001 332.6 77.1001 329.7 77.7001 326.5L77.9001 325.2L91.5001 252.3C91.9001 250.3 93.6001 248.8 95.7001 248.8H114.6C117.2 248.8 119.2 251.2 118.8 253.8L110.7 299.8C110.4 301.7 111.8 303.3 113.7 303.3H142L148.6 252.2C148.9 250.2 150.6 248.7 152.6 248.7H173.7C176 248.8 177.9 250.9 177.7 253.2Z" fill="#A77CFB"/>
<path d="M142.6 325.2L142.1 331.6L82.8 332.6C79.5 332.6 77 329.7 77.6 326.5L77.8 325.2H142.6Z" fill="#E8DDFF"/>
<path d="M177.7 253.2L164.5 402.8C164.3 405.6 161.9 407.8 159.1 407.8H156.1L171.8 248.8H173.7C176 248.8 177.9 250.9 177.7 253.2Z" fill="#E8DDFF"/>
<path d="M110.6 299.9C110.3 301.8 111.7 303.4 113.6 303.4H107.8C105.7 303.4 104 301.5 104.4 299.4L113.3 248.9H114.6C117.2 248.9 119.2 251.3 118.8 253.9L110.6 299.9Z" fill="#E8DDFF"/>
<path d="M507.7 253.2L494.5 402.8C494.3 405.6 491.9 407.8 489.1 407.8H469.3C466 407.8 463.5 404.9 463.9 401.7L472.2 331.6L412.9 332.6C409.6 332.6 407.1 329.7 407.7 326.5L407.9 325.2L421.5 252.3C421.9 250.3 423.6 248.8 425.7 248.8H444.6C447.2 248.8 449.2 251.2 448.8 253.8L440.7 299.8C440.4 301.7 441.8 303.3 443.7 303.3H472L478.6 252.2C478.9 250.2 480.6 248.7 482.6 248.7H503.7C506.1 248.8 508 250.9 507.7 253.2Z" fill="#A77CFB"/>
<path d="M472.7 325.2L472.2 331.6L412.9 332.6C409.6 332.6 407.1 329.7 407.7 326.5L407.9 325.2H472.7Z" fill="#E8DDFF"/>
<path d="M507.7 253.2L494.5 402.8C494.3 405.6 491.9 407.8 489.1 407.8H486.1L501.8 248.8H503.7C506.1 248.8 508 250.9 507.7 253.2Z" fill="#E8DDFF"/>
<path d="M440.7 299.9C440.4 301.8 441.8 303.4 443.7 303.4H437.9C435.8 303.4 434.1 301.5 434.5 299.4L443.4 248.9H444.7C447.3 248.9 449.3 251.3 448.9 253.9L440.7 299.9Z" fill="#E8DDFF"/>
<path opacity="0.28" d="M259.3 283.7L238.8 387.7C237.7 393.3 241.3 398.6 246.2 398.6H354.8C359.6 398.6 363.2 393.5 362.3 388.1L345.5 284.1C344.8 279.9 341.7 276.9 338 276.9H266.8C263.2 276.8 260.1 279.7 259.3 283.7Z" fill="#A77CFB"/>
<path d="M351.9 290.2L361.8 323.1C362 323.8 362.7 324.2 363.4 323.9C363.9 323.7 364.3 323.1 364.1 322.5L357.6 288.8C357.2 287 355.2 286 353.5 286.7C352.2 287.3 351.5 288.7 351.9 290.2Z" fill="#A77CFB"/>
<path d="M333.2 302.1L339.6 327.5C339.7 328 340.2 328.2 340.6 328.1C341 328 341.2 327.6 341.1 327.2L337 301.3C336.8 300.1 335.5 299.3 334.3 299.8C333.5 300.2 333 301.1 333.2 302.1Z" fill="#A77CFB"/>
<path d="M249.8 293.4L241.5 318.7C241.4 319.2 240.8 319.4 240.4 319.2C240 319 239.8 318.6 239.9 318.2L245.9 292.3C246.2 291.1 247.6 290.4 248.7 290.9C249.7 291.4 250.1 292.4 249.8 293.4Z" fill="#A77CFB"/>
<path d="M266.3 301.2L255.5 348.2C255.4 348.7 254.9 348.9 254.5 348.8C254.1 348.7 253.9 348.3 254 347.9L262.5 300.4C262.7 299.2 264 298.4 265.2 298.9C266.1 299.2 266.6 300.2 266.3 301.2Z" fill="#A77CFB"/>
<path d="M289.2 306.7L284 340.8C283.9 341.3 283.4 341.6 283 341.4C282.6 341.3 282.4 340.9 282.4 340.5L285.2 306.1C285.4 304.9 286.6 304.1 287.8 304.5C288.8 304.7 289.4 305.7 289.2 306.7Z" fill="#A77CFB"/>
<path d="M316 306L317.3 360.1C317.3 360.6 316.9 360.9 316.4 360.9C316 360.8 315.7 360.5 315.7 360.1L312 306C312 304.7 313.1 303.8 314.3 304C315.3 304.2 316 305.1 316 306Z" fill="#A77CFB"/>
<path d="M212.1 256.9C211 255.6 210.2 254.3 209.6 253L207.3 237.6L212.6 242.5L212.1 256.9Z" fill="#585858"/>
<path d="M361.3 262.1C361.3 262.1 358 269 350.8 276.7C341.8 286.3 326.6 297.2 304 297.2C288.1 297.2 276.3 291.9 267.9 285.5C254.7 275.5 249.5 262.7 249.5 262.7L361.3 262.1Z" fill="#A77CFB"/>
<path d="M361.3 262.1C361.3 262.1 358 269 350.8 276.7C343.1 279.7 333.6 282.2 321.8 283.8C298.6 286.9 280.5 286.7 267.9 285.5C254.7 275.5 249.5 262.7 249.5 262.7L361.3 262.1Z" fill="#E8DDFF"/>
<path d="M396.5 237C396.5 237 395.9 243.3 393.9 251.1C393.6 252.2 393.1 253.5 392.3 254.7C390.2 258.1 386.2 261.8 379.7 265.3C378.6 265.9 377.3 266.5 376 267.1C375 267.6 374 268 372.9 268.5C371.4 269.1 369.9 269.7 368.3 270.3C362.7 272.3 356.1 274 348.3 275.6C347.7 275.7 347.2 275.8 346.6 275.9C345.1 276.2 343.3 276.4 341.4 276.6C333.4 277.5 322.8 278.1 311.5 278.3C309.4 278.3 307.3 278.4 305.2 278.4C294.5 278.5 283.7 278.2 274.3 277.7C272.3 277.6 270.3 277.5 268.5 277.3C263 276.9 258.2 276.3 254.7 275.6C249.6 274.6 245 273.5 240.9 272.3C239.2 271.8 237.6 271.3 236 270.8C223.6 266.7 216.1 261.7 212.2 257.1C211.6 256.4 211.1 255.8 210.7 255.1C210.3 254.5 209.9 253.8 209.7 253.2C209.4 252.5 209.1 251.9 209 251.2C208.1 247.5 207.4 243.7 207.1 240.8C206.7 237.5 206.6 235.3 206.6 235.3L301.6 242.4L396.6 237.1L396.5 237Z" fill="#585858"/>
<path d="M396.4 236.8C396.4 237.5 395.9 238.4 395 239.5C392.5 242.4 386.5 246.7 376.3 250.6C375 251.1 373.6 251.6 372.1 252.1C371.4 252.3 370.7 252.6 370 252.8C368.5 253.3 366.9 253.8 365.2 254.2C359.5 255.8 352.9 257.3 345.3 258.4C343.5 258.7 341.6 259 339.6 259.2C331.2 260.3 321.8 261 311.3 261.2C309.3 261.2 307.2 261.3 305.1 261.3H305C294.3 261.3 284.4 260.8 275.5 260C273.5 259.8 271.5 259.6 269.6 259.4C259.8 258.3 251.1 256.7 243.6 254.9C241.9 254.5 240.2 254 238.6 253.6C223.7 249.5 213.9 244.4 209.4 240.2C208.5 239.4 207.8 238.5 207.3 237.8C206.7 236.9 206.4 236.1 206.4 235.3C206.4 228.2 234.4 213.1 305.5 213.1C376.6 213 396.4 231.9 396.4 236.8Z" fill="#A77CFB"/>
<path d="M264.5 221.2L212.5 242.5C210.5 241.2 207.7 238.4 207.2 237.6L262.8 220.3L264.5 221.2Z" fill="#E8DDFF"/>
<path d="M396.4 236.9C396.4 237.5 395.9 238.4 395 239.5L341.6 221.2L343.3 220.4L396.4 236.9Z" fill="#E8DDFF"/>
<path d="M273.3 226.7L243.6 254.8C241.9 254.4 240.2 253.9 238.6 253.5L271.5 226.6L273.3 226.7Z" fill="#E8DDFF"/>
<path d="M289.6 230L275.5 260C273.5 259.8 271.5 259.6 269.6 259.4L287.8 229.9L289.6 230Z" fill="#E8DDFF"/>
<path d="M345.4 258.5C343.6 258.8 341.6 259.1 339.7 259.3L325.9 230L327.8 229.9L345.4 258.5Z" fill="#E8DDFF"/>
<path d="M311.3 261.3C309.3 261.3 307.2 261.4 305.1 261.4H305L307.4 231.9L309.3 231.8L311.3 261.3Z" fill="#E8DDFF"/>
<path d="M376.2 250.6C374.9 251.1 373.5 251.6 372 252.1L336.1 226.7L338 226.6L376.2 250.6Z" fill="#E8DDFF"/>
<path d="M311.4 278.1C309.3 278.1 307.2 278.2 305.1 278.2V261.3L311.3 261.2L311.4 278.1Z" fill="#585858"/>
<path d="M346.4 275.7C344.8 276 343.1 276.2 341.2 276.4L339.6 259.2L345.3 258.4L346.4 275.7Z" fill="#585858"/>
<path d="M379.6 265.2C378.5 265.8 377.2 266.4 375.9 267L372.1 252L376.2 250.6L379.6 265.2Z" fill="#585858"/>
<path d="M275.5 260L274.3 277.5C272.3 277.4 270.3 277.3 268.5 277.1L269.7 259.4L275.5 260Z" fill="#585858"/>
<path d="M243.6 254.8L240.8 272.1C239.1 271.6 237.5 271.1 235.9 270.6L238.5 253.5L243.6 254.8Z" fill="#585858"/>
<path d="M212.6 242.7L210.6 255C210.2 254.4 209.8 253.7 209.6 253.1C209.3 252.4 209 251.8 208.9 251.1C208 247.4 207.3 243.6 207 240.7L207.3 237.7C207.3 237.7 209 239.7 209.7 240.4C210.3 241 212.6 242.7 212.6 242.7Z" fill="#585858"/>
<path d="M300.8 243.8C330.237 243.8 354.1 237.04 354.1 228.7C354.1 220.361 330.237 213.6 300.8 213.6C271.363 213.6 247.5 220.361 247.5 228.7C247.5 237.04 271.363 243.8 300.8 243.8Z" fill="#E8DDFF"/>
<path d="M349.5 226.3C349.5 226.3 345.6 230.7 336 234.5C328.9 237.3 318.7 239.7 304.7 239.7C297 239.7 290.3 239 284.7 237.9C266 234.3 257.9 226.5 257.9 226.5C257.9 226.5 262 196.1 287.6 185.8C292.8 183.7 299 182.4 306.2 182.4C341.4 182.4 349.5 226.3 349.5 226.3Z" fill="#585858"/>
<path d="M284.7 237.9C266 234.3 257.9 226.5 257.9 226.5C257.9 226.5 262 196.1 287.6 185.8C282.6 190 277.7 198.4 276.9 212.1C276.1 222.3 278.5 230.8 284.7 237.9Z" fill="#585858"/>
<path d="M349.5 226.3C349.5 226.3 345.6 230.7 336 234.5C334.5 228.9 332.2 223.9 332.2 223.9C332.2 223.9 322.8 225.9 318.6 217C314.4 208.1 324.5 201.7 324.5 201.7C324.5 201.7 322.1 194 309.7 189C297.3 184 287.4 185.8 287.4 185.8C292.6 183.7 298.8 182.4 306 182.4C341.4 182.4 349.5 226.3 349.5 226.3Z" fill="#A77CFB"/>
<path d="M309.2 207.5C310.691 207.5 311.9 206.336 311.9 204.9C311.9 203.464 310.691 202.3 309.2 202.3C307.709 202.3 306.5 203.464 306.5 204.9C306.5 206.336 307.709 207.5 309.2 207.5Z" fill="#A77CFB"/>
<path d="M299.8 210C300.96 210 301.9 209.105 301.9 208C301.9 206.895 300.96 206 299.8 206C298.64 206 297.7 206.895 297.7 208C297.7 209.105 298.64 210 299.8 210Z" fill="#A77CFB"/>
<path d="M306.1 223.5C308.364 223.5 310.2 221.709 310.2 219.5C310.2 217.291 308.364 215.5 306.1 215.5C303.836 215.5 302 217.291 302 219.5C302 221.709 303.836 223.5 306.1 223.5Z" fill="#A77CFB"/>
</svg>
