<svg width="600" height="600" viewBox="0 0 600 600" fill="none" xmlns="http://www.w3.org/2000/svg">
<path d="M311.3 508.5C406.127 508.5 483 504.56 483 499.7C483 494.84 406.127 490.9 311.3 490.9C216.473 490.9 139.6 494.84 139.6 499.7C139.6 504.56 216.473 508.5 311.3 508.5Z" fill="#E3F0FF"/>
<path d="M386.5 497.9C386.5 497.9 383.2 492.3 390.3 489.6C397.4 486.9 413.5 485.2 411.9 479.7C410.3 474.2 404.8 464.3 418.6 454.9C432.3 445.6 429.6 441.6 431.5 442.5C433.4 443.4 438 448.9 437.2 454.1C436.4 459.3 432.6 460.6 434.4 462.3C436.2 463.9 442.3 458 442.3 452.5C442.3 447 442.6 443 446.6 445.3C450.5 447.6 450 450.9 452.8 448.4C455.6 445.9 457.4 440.9 456.2 433.5C455.1 426.1 458.7 420.6 463.9 420.4C469.1 420.2 479.9 429.9 480.8 444.6C481.6 459.3 472.5 471.3 473.8 475C475.1 478.8 480.8 477 483.8 471.6C486.7 466.2 493.9 474.7 492 482.1C490 489.5 488.2 497.6 483.8 499.1C479.4 500.6 401.3 499.4 395.4 499.4C389.4 499.4 387.6 499.5 386.5 497.9Z" fill="#FF8D76"/>
<path d="M405 495.4C409.1 495.3 421.4 495.4 419.9 488.5C418.4 481.6 415.8 478.7 420.1 472.8C424.4 466.9 429.1 470.5 429.3 473.5C429.5 476.4 428.3 482.3 433.4 481.5C438.5 480.7 438.6 466.9 442.9 465.8C447.2 464.7 448.5 468.9 449.1 473C449.8 477.1 454.8 472.7 456.8 467.8C458.8 462.9 458.6 456.2 463.2 454.2C467.8 452.2 470.1 463.7 468.1 474.2C466.1 484.7 464.5 489.9 467 490.9C469.5 491.9 474.4 489.4 476.7 493.2C479 497 475.6 499.6 466.2 499.6C456.9 499.6 409.2 499.6 401.7 499.6C394 499.5 395.6 495.6 405 495.4Z" fill="#FEC272"/>
<path d="M132.8 336.4C129.8 341.7 121.7 339 117.9 333C114.1 326.9 108.4 330.5 109.7 342.5C111 354.4 115.8 362.3 124.4 368C133 373.7 142.7 376 140.4 379.9C138.1 383.8 134.5 392.7 147.4 397.2C160.3 401.8 179 399.7 188.6 388.9C198.3 378.1 198.3 354.3 193.8 341.5C189.4 328.7 180.5 320.6 177.6 314.7C174.7 308.8 169.3 312.9 170.2 318.4C171.2 323.9 173 327.1 169.1 327.2C165.2 327.3 162.6 313.9 150.9 311.4C139.2 308.8 137.3 315.8 129.9 311.8C122.5 307.7 119.8 308.1 119.3 314.5C118.8 321 123.7 328.1 127.9 329.2C134.2 330.8 134.8 332.8 132.8 336.4Z" fill="#FEC272"/>
<path d="M150 342.6C151.1 348.3 146.4 354.5 138.2 350.9C130 347.3 127.1 350.2 131.3 357.8C135.5 365.4 144.9 372.4 150 375C155.1 377.6 151.6 381.4 152.3 385.3C153 389.2 164.4 395.1 175.9 382.5C187.4 369.9 187.5 353.9 184.2 342.2C180.9 330.6 176.5 332.4 176.5 336.3C176.5 340.2 177 347.9 174 347.1C171.1 346.3 167 340.6 163.2 334C156.7 322.7 140.8 313.5 138.7 322.2C137.2 328.3 148.4 333.9 150 342.6Z" fill="#FF8D76"/>
<path d="M381.9 305.3C367.5 293.6 354.4 272.6 351.5 234.9C349.4 207.6 358.5 195.5 367.9 191C377.2 186.6 377.2 182.2 381.4 183.4C385.6 184.6 384.6 194.2 380.7 198.9C376.8 203.6 376.3 210.9 382.2 211.4C388.1 211.9 388.8 201.3 389.8 191.5C390.8 181.7 393.2 177.8 404.8 172.4C416.4 167 422.5 163.1 424.9 155.2C427.4 147.3 429.8 147.8 434.2 150C438.6 152.2 440.1 162.5 436.4 166.4C432.7 170.3 429.8 173.3 430.3 176.7C430.8 180.1 432.5 174.7 442.6 169.8C452.7 164.9 456.8 150.2 458.1 142.6C459.4 135 462 133 469.1 136.5C476.2 139.9 485.3 153.4 482.8 171.8C480.3 190.2 467.8 202.7 465.9 212.6C463.9 222.4 470.1 224.6 476.5 220.9C482.9 217.2 479.4 206.2 482.9 201C486.3 195.8 496.9 206.9 500.1 225.5C503.3 244.1 508.2 273.7 480.5 301.4C451.9 329.8 410 328.2 381.9 305.3Z" fill="#FEC272"/>
<path d="M392.6 218C399.6 206.6 406.8 207 407.1 211.1C407.3 215.3 401.5 221.2 404.4 224.1C407.3 227 411.3 221.9 412.5 214.5C413.7 207.1 420.8 203 428.2 199.5C435.6 196.1 438.8 188.7 442.4 188.5C446 188.3 447.3 196.1 444.9 200.8C442.4 205.5 433.6 207.9 433.6 214.5C433.6 221.1 440.1 221.5 442.9 216C445.7 210.5 445 207.5 450.9 207C456.8 206.5 456.3 220.6 452.4 225.8C448.5 231 441.8 235.1 444.9 240.2C448 245.3 453.7 240.2 456.8 236.8C459.9 233.4 466.1 237.1 467.1 243.7C468.1 250.2 455.3 261.4 456.1 267.1C456.9 272.8 462 271.4 464.9 267.4C467.8 263.5 471.6 268.5 470.6 275.1C469.6 281.7 451.8 303.6 420 295.2C373.8 283.1 380.1 238.5 392.6 218Z" fill="#FF8D76"/>
<path d="M226.4 204.4L330 114.1C331 113.2 332.5 113.3 333.4 114.3C334.3 115.3 334.2 116.9 333.2 117.8L231.3 211L226.4 204.4Z" fill="#E1ECFF"/>
<path d="M216.7 222.8L159.9 97.6C159.3 96.4 159.9 94.9 161.1 94.4C162.3 93.8 163.8 94.3 164.4 95.6L224.4 220.1L216.7 222.8Z" fill="#E1ECFF"/>
<path d="M217.3 232.7C227.628 232.7 236 224.328 236 214C236 203.672 227.628 195.3 217.3 195.3C206.972 195.3 198.6 203.672 198.6 214C198.6 224.328 206.972 232.7 217.3 232.7Z" fill="#A77CFB"/>
<path d="M216.5 207.9C221.471 207.9 225.5 205.393 225.5 202.3C225.5 199.207 221.471 196.7 216.5 196.7C211.529 196.7 207.5 199.207 207.5 202.3C207.5 205.393 211.529 207.9 216.5 207.9Z" fill="#A77CFB"/>
<path d="M364.5 444.4C364.2 452.9 354.3 453.2 349.4 443.4C347.1 438.7 343.3 430.7 340 423.7C336.4 416 333.4 409.4 333.4 409.4L361.9 412.3C361.9 412.3 362.5 417.3 363.2 423.6C364 430.8 364.7 439.8 364.5 444.4Z" fill="#A77CFB"/>
<path d="M363.2 423.6C361.8 423.9 360.2 424.2 358.5 424.5C352.6 425.5 345.8 424.8 340.1 423.7C336.5 416 333.5 409.4 333.5 409.4L362 412.3C361.9 412.3 362.6 417.3 363.2 423.6Z" fill="#A77CFB"/>
<path d="M171.2 411.8C168.2 419.8 177.1 423.9 185.4 416.8C189.4 413.4 196 407.5 201.8 402.3C208.1 396.6 213.5 391.7 213.5 391.7L186.1 383.2C186.1 383.2 183.6 387.6 180.5 393.1C177.1 399.6 172.8 407.5 171.2 411.8Z" fill="#A77CFB"/>
<path d="M180.6 393.2C181.8 394.1 183.1 395 184.6 395.9C189.6 399.1 196.1 401.1 201.9 402.4C208.2 396.7 213.6 391.8 213.6 391.8L186.2 383.3C186.2 383.3 183.7 387.7 180.6 393.2Z" fill="#A77CFB"/>
<path d="M437.2 304C433.4 333.9 430 365.6 423.5 387.5C422.7 390.3 421.8 392.9 420.8 395.3C412.5 416.9 397.4 412.5 377.9 414.3C358.4 416.1 352.5 415.9 352.5 415.9L357.5 385.5L381.3 241.9L428 246C428 246 430.5 247.8 432.6 251.2C434.8 254.7 441.5 270.2 437.2 304Z" fill="#A77CFB"/>
<path d="M423.5 387.5C422.7 390.3 421.8 392.9 420.8 395.3C412.5 416.9 397.4 412.5 377.9 414.3C358.4 416.1 352.5 415.9 352.5 415.9L357.5 385.5L423.5 387.5Z" fill="#A77CFB"/>
<path d="M179.5 220.6C179.5 220.6 191.7 214.2 205.5 213.7C219.3 213.2 328.5 224.1 364.2 228C399.9 231.9 415.3 236.8 422.5 240.6C429.7 244.4 432.6 251.2 432.6 251.2L375.3 246L179.5 220.6Z" fill="#A77CFB"/>
<path d="M157.7 353.1L165 240.5C165.8 227.5 177.4 217.8 190.3 219.3L375.9 240.3C387.5 241.6 395.8 252 394.7 263.5L382.5 386.4C380.6 405.3 363.1 418.6 344.4 415.5L185.7 388.6C168.7 385.7 156.6 370.3 157.7 353.1Z" fill="#A77CFB"/>
<path d="M331.5 390.2L344.9 260.3C345.5 254.8 350.4 250.8 355.9 251.4L379.2 254C384.7 254.6 388.6 259.6 388 265L373 395C372.4 400.5 367.3 404.4 361.8 403.7L340.2 401C334.8 400.4 330.9 395.6 331.5 390.2Z" fill="#FEC272"/>
<path d="M382.1 279.7C382.1 283.9 380.6 287.7 378.2 290.7C376.5 292.7 374.5 294.4 372.1 295.5C369.9 296.6 367.4 297.1 364.7 297.1C355.1 297.1 347.3 289.3 347.3 279.7C347.3 275.7 348.7 272 350.9 269.1C352.5 267 354.5 265.3 356.9 264.1C359.2 262.9 361.9 262.3 364.7 262.3C374.2 262.3 382.1 270.1 382.1 279.7Z" fill="#F9A95A"/>
<path d="M381.2 276.8C381.2 280.6 379.9 284.1 377.6 286.9C376.1 288.8 374.2 290.3 372 291.3C369.9 292.3 367.7 292.8 365.2 292.8C356.4 292.8 349.2 285.7 349.2 276.8C349.2 273.1 350.4 269.8 352.5 267.1C354 265.2 355.8 263.6 358 262.6C360.2 261.5 362.6 260.9 365.1 260.9C374.1 260.8 381.2 268 381.2 276.8Z" fill="#99ADF9"/>
<path d="M377.7 286.9C376.2 288.8 374.3 290.3 372.1 291.3L352.7 267.1C354.2 265.2 356 263.6 358.2 262.6L377.7 286.9Z" fill="#C5DFFF"/>
<path d="M366.4 337.5C362.6 339 358.7 339.1 355.1 338C352.7 337.3 350.4 336 348.5 334.2C346.7 332.6 345.3 330.5 344.3 328.2C340.8 319.5 344.9 309.6 353.6 306.1C357.2 304.6 361 304.5 364.5 305.5C366.9 306.2 369.2 307.4 371.2 309.1C373.1 310.8 374.7 312.9 375.7 315.4C379.3 324.1 375.1 334 366.4 337.5Z" fill="#F9A95A"/>
<path d="M366.4 333.4C362.9 334.8 359.1 334.9 355.7 333.9C353.4 333.2 351.3 332 349.5 330.4C347.8 328.9 346.5 327 345.6 324.7C342.3 316.5 346.2 307.2 354.3 303.9C357.7 302.5 361.3 302.4 364.6 303.3C366.9 303.9 369 305.1 370.9 306.7C372.7 308.3 374.2 310.3 375.2 312.7C378.5 320.8 374.6 330.1 366.4 333.4Z" fill="#99ADF9"/>
<path d="M370.9 306.6L355.7 333.9C353.4 333.2 351.3 332 349.5 330.4L364.6 303.3C367 303.9 369.1 305 370.9 306.6Z" fill="#C5DFFF"/>
<path d="M367 356.2L346 353C344.6 352.8 343.6 351.5 343.8 350.1C344 348.7 345.2 347.7 346.6 347.9L367.6 351.1C369 351.3 370 352.6 369.8 354C369.6 355.4 368.3 356.4 367 356.2Z" fill="#A77CFB"/>
<path d="M365.6 367.8L344.6 364.6C343.2 364.4 342.2 363.1 342.4 361.7C342.6 360.3 343.8 359.3 345.2 359.5L366.2 362.7C367.6 362.9 368.6 364.2 368.4 365.6C368.3 367.1 367 368 365.6 367.8Z" fill="#A77CFB"/>
<path d="M364.3 379.5L343.3 376.3C341.9 376.1 340.9 374.8 341.1 373.4C341.3 372 342.5 371 343.9 371.2L364.9 374.4C366.3 374.6 367.3 375.9 367.1 377.3C367 378.7 365.7 379.7 364.3 379.5Z" fill="#A77CFB"/>
<path d="M363 391.1L342 387.9C340.6 387.7 339.6 386.4 339.8 385C340 383.6 341.2 382.6 342.6 382.8L363.6 386C365 386.2 366 387.5 365.8 388.9C365.7 390.3 364.4 391.3 363 391.1Z" fill="#A77CFB"/>
<path d="M336.4 264.1L335.8 270.4L325.2 382.2C324.8 386 323.2 389.4 320.7 391.9C317.2 395.5 312.1 397.4 306.7 396.5L187.2 377.6C174.7 375.6 165.7 364.4 166.5 351.7L172.9 251.5L173.1 248.2L173.5 242.7C174 235.1 180.8 229.4 188.4 230.3L322.4 246.4C331 247.6 337.2 255.4 336.4 264.1Z" fill="#F8FBFF"/>
<path d="M336.4 264.1L335.8 270.4L173.1 248.3L173.5 242.8C174 235.2 180.8 229.5 188.4 230.4L322.4 246.5C331 247.6 337.2 255.4 336.4 264.1Z" fill="#C5DFFF"/>
<path d="M189.4 241.8C189.1 243.8 187.2 245.3 185.1 245C183 244.7 181.4 242.9 181.7 240.9C182 238.9 183.9 237.4 186 237.7C188.1 238 189.6 239.8 189.4 241.8Z" fill="white"/>
<path d="M205.2 243.7C204.9 245.7 203 247.2 200.9 246.9C198.8 246.6 197.2 244.8 197.5 242.8C197.8 240.8 199.7 239.3 201.8 239.6C203.9 239.9 205.4 241.7 205.2 243.7Z" fill="white"/>
<path d="M220.9 245.6C220.6 247.6 218.7 249.1 216.6 248.8C214.5 248.5 212.9 246.7 213.2 244.7C213.5 242.7 215.4 241.2 217.5 241.5C219.7 241.7 221.2 243.6 220.9 245.6Z" fill="white"/>
<path d="M320.7 391.9C317.2 395.5 312.1 397.4 306.7 396.5L187.2 377.6C174.7 375.6 165.7 364.4 166.5 351.7L172.9 251.5C175 286.2 169.7 324.9 189 346.9C217.3 379.2 243 379 320.7 391.9Z" fill="#E1ECFF"/>
<path d="M224.3 289.4L219.3 288.6C218 288.4 216.9 289.2 216.8 290.5L215.3 304.2L209 303.5C207.9 303.3 207.2 302.2 207.6 301.2L212.1 290.2C212.7 288.8 211.7 287.2 210.2 287L206.1 286.3C205.1 286.1 204.1 286.7 203.7 287.6L196.6 305.2C195.8 307.2 197.1 309.5 199.3 309.9L214.4 312.5L211.7 336.9C211.6 338.2 212.5 339.4 213.8 339.6L218.5 340.3C219.7 340.5 220.8 339.7 221 338.4L226.4 292.2C226.5 290.9 225.6 289.6 224.3 289.4Z" fill="#99ADF9"/>
<path d="M295.6 301.3L290.5 300.4C289.2 300.2 288 301.1 287.9 302.3L286.3 316.5L279.7 315.8C278.6 315.6 277.9 314.4 278.3 313.4L282.9 302C283.5 300.6 282.5 298.9 280.9 298.6L276.7 297.9C275.6 297.7 274.6 298.3 274.2 299.2L266.8 317.4C266 319.5 267.4 321.9 269.6 322.3L285.2 324.9L282.4 350.2C282.3 351.5 283.2 352.8 284.6 353L289.5 353.7C290.8 353.9 291.9 353 292.1 351.8L297.7 303.9C297.9 302.7 296.9 301.5 295.6 301.3Z" fill="#99ADF9"/>
<path d="M248.7 292.6C238.8 291.7 233 297.3 230.6 313.8C227.6 334.3 233 342.6 243 344.9C256.6 348.1 259 336.4 261.7 319.1C264.4 301.8 258.6 293.5 248.7 292.6ZM253.6 318.7C252.3 330.8 248.6 337.7 244.1 336.6C239.3 335.4 237.5 329.8 238.9 315.5C240 304 242.8 300.1 247.5 300.5C252.2 301 254.9 306.6 253.6 318.7Z" fill="#99ADF9"/>
<path d="M379.2 163C374.4 162.9 372.3 151.4 376.8 148.5C381.3 145.6 384.5 151.5 384.6 155.8C384.7 160.1 383.5 163.2 379.2 163Z" fill="#FF8D76"/>
<path d="M434.7 129.7C430.3 129.6 428.4 119.2 432.6 116.6C436.7 114 439.5 119.3 439.6 123.2C439.7 127.1 438.6 129.8 434.7 129.7Z" fill="#FEC272"/>
<path d="M478.6 108.5C474.1 108.4 472.1 97.7 476.4 95C480.7 92.3 483.5 97.8 483.7 101.8C483.9 105.8 482.6 108.7 478.6 108.5Z" fill="#FF8D76"/>
<path d="M515.1 191C511.3 190 511.8 180.3 516 178.9C520.2 177.5 521.6 182.7 520.9 186.2C520.2 189.7 518.6 191.9 515.1 191Z" fill="#FEC272"/>
<path d="M131.9 292.4C127.2 291.7 126.3 280.2 131.2 277.9C136.1 275.6 138.4 281.7 138.1 285.9C137.7 290.2 136.2 292.9 131.9 292.4Z" fill="#FEC272"/>
<path d="M118.4 255.4C114.7 254.9 114.1 245.9 117.8 244.1C121.5 242.3 123.4 247 123.1 250.3C122.9 253.7 121.7 255.9 118.4 255.4Z" fill="#FF8D76"/>
<path d="M91.3 314.8C85.3 314 84.2 299.2 90.4 296.3C96.5 293.4 99.6 301.1 99.2 306.6C98.7 312 96.8 315.5 91.3 314.8Z" fill="#FEC272"/>
<path d="M154.2 215.6L106.6 177.7L98 193.4L154.2 215.6Z" fill="#FEC272"/>
<path d="M156.5 204.9L110.3 159.8L127.6 148.6L156.5 204.9Z" fill="#FEC272"/>
<path d="M149.7 150.2L165.9 200.6L164.3 148.7L149.7 150.2Z" fill="#FEC272"/>
</svg>
